<svg width="16" height="11" viewBox="0 0 16 11" fill="none" xmlns="http://www.w3.org/2000/svg">
<path d="M3.65648 4.45472C4.3048 4.45472 4.93857 4.64133 5.47763 4.99096C6.01669 5.34058 6.43683 5.83751 6.68493 6.41891C6.93304 7.00031 6.99795 7.64007 6.87147 8.25728C6.74499 8.87449 6.43279 9.44144 5.97436 9.88642C5.51593 10.3314 4.93185 10.6344 4.29598 10.7572C3.66012 10.88 3.00103 10.817 2.40206 10.5762C1.80309 10.3353 1.29114 9.92751 0.930948 9.40426C0.57076 8.88102 0.37851 8.26584 0.37851 7.63654L0.363525 7.18199C0.363525 5.49425 1.05424 3.87564 2.28372 2.68222C3.51319 1.48881 5.18072 0.818359 6.91947 0.818359V2.63654C6.30424 2.63494 5.69479 2.75173 5.12636 2.98018C4.55792 3.20862 4.04178 3.54418 3.60778 3.96745C3.4391 4.13087 3.28349 4.30653 3.14231 4.4929C3.30995 4.46745 3.48134 4.45381 3.65555 4.45381L3.65648 4.45472ZM12.0856 4.45472C12.7339 4.45472 13.3676 4.64133 13.9067 4.99096C14.4458 5.34058 14.8659 5.83751 15.114 6.41891C15.3621 7.00031 15.427 7.64007 15.3005 8.25728C15.1741 8.87449 14.8619 9.44144 14.4034 9.88642C13.945 10.3314 13.3609 10.6344 12.7251 10.7572C12.0892 10.88 11.4301 10.817 10.8311 10.5762C10.2322 10.3353 9.72021 9.92751 9.36002 9.40426C8.99983 8.88102 8.80758 8.26584 8.80758 7.63654L8.7926 7.18199C8.7926 5.49425 9.48331 3.87564 10.7128 2.68222C11.9423 1.48881 13.6098 0.818359 15.3485 0.818359V2.63654C14.7333 2.63494 14.1239 2.75173 13.5554 2.98018C12.987 3.20862 12.4709 3.54418 12.0369 3.96745C11.8682 4.13087 11.7126 4.30653 11.5714 4.4929C11.739 4.46745 11.9104 4.45472 12.0856 4.45472Z" fill="#193985"/>
</svg>
