<svg width="146" height="146" viewBox="0 0 146 146" fill="none" xmlns="http://www.w3.org/2000/svg">
<g clip-path="url(#clip0_349_164)">
<path d="M123.522 64.2062C123.571 58.1495 123.816 52.0343 124.256 45.8606C124.263 45.7381 124.272 45.6173 124.281 45.4948C124.514 42.2808 124.799 39.0552 125.135 35.8181V35.7998C125.135 35.2662 124.924 34.7546 124.55 34.3773C124.175 34 123.667 33.7879 123.137 33.7876H69.537C69.0088 33.7886 68.5024 33.9997 68.1281 34.3749C67.7538 34.75 67.5418 35.2589 67.5383 35.7906C67.0732 40.2485 66.7086 44.6844 66.4445 49.0984C66.4336 49.2429 66.4264 49.3856 66.4191 49.5301C66.2883 51.7124 66.1841 53.8892 66.1066 56.0605C66.1011 56.1886 66.0957 56.3166 66.0939 56.4447C65.5978 69.767 66.0806 83.1081 67.5383 96.3588C67.5422 96.8903 67.7543 97.3987 68.1286 97.7735C68.5029 98.1483 69.0091 98.3591 69.537 98.36H123.137C123.667 98.3597 124.175 98.1476 124.55 97.7703C124.924 97.393 125.135 96.8814 125.135 96.3479V96.3277C124.872 93.9735 124.641 91.604 124.441 89.2193C124.412 88.8699 124.384 88.5205 124.356 88.1711C124.218 86.4535 124.097 84.7291 123.994 82.998C123.973 82.6486 123.953 82.2992 123.934 81.9498C123.74 78.4853 123.613 74.9938 123.553 71.4756C123.546 71.1262 123.54 70.7786 123.535 70.4274C123.513 68.7098 123.506 66.9854 123.515 65.2543C123.515 64.9049 123.516 64.5555 123.522 64.2062Z" fill="#F0F0F0"/>
<path d="M83.8873 33.7876C83.6014 38.9035 81.7335 43.8012 78.5452 47.7951C75.3568 51.789 71.0077 54.679 66.1067 56.0605C66.1012 56.1886 66.0958 56.3166 66.094 56.4447C71.0965 55.0592 75.5404 52.1267 78.7983 48.0613C82.0561 43.996 83.9633 39.0031 84.2507 33.7876H83.8873Z" fill="white"/>
<path d="M78.322 33.7876C77.4776 37.0174 75.9891 40.0405 73.9472 42.6727C71.9053 45.3049 69.3526 47.4912 66.4446 49.0984C66.4337 49.2429 66.4265 49.3856 66.4192 49.5301C69.433 47.8996 72.0794 45.6596 74.1924 42.9505C76.3055 40.2414 77.8394 37.1219 78.6981 33.7876H78.322Z" fill="white"/>
<path d="M0.666687 96.9129C0.666687 92.6463 1.01308 88.8916 1.70587 85.6489C2.39865 82.4063 3.52443 79.5049 5.0832 76.9449C6.64197 74.3849 8.63374 72.0383 11.0585 69.9049C13.5698 67.7716 16.6441 65.7663 20.2812 63.8889C24.9575 61.4143 28.6813 59.4089 31.4524 57.8729C34.2236 56.3369 36.2586 55.1423 37.5576 54.2889C38.9432 53.3503 39.8091 52.5823 40.1555 51.9849C40.5885 51.3023 40.805 50.5769 40.805 49.8089C40.805 48.3583 40.4586 47.2063 39.7658 46.3529C39.1597 45.4143 38.2937 44.7316 37.1679 44.3049C36.0421 43.7929 34.6565 43.5369 33.0112 43.5369C31.6256 43.5369 30.24 43.7076 28.8545 44.0489C27.5555 44.3903 26.2565 44.9449 24.9575 45.7129C23.6586 46.4809 22.3163 47.4623 20.9307 48.6569C19.6317 49.7663 18.2895 51.1316 16.9039 52.7529L1.31617 34.7049C3.04814 32.9129 5.1698 31.2916 7.68115 29.8409C10.2791 28.3049 13.1369 27.0249 16.2544 26.0009C19.4585 24.8916 22.8359 24.0383 26.3864 23.4409C29.9369 22.8436 33.5741 22.5449 37.2978 22.5449C43.8793 22.5449 49.4216 23.4836 53.9247 25.3609C58.4278 27.1529 61.8484 29.7556 64.1866 33.1689C66.5247 36.5823 67.6938 40.7209 67.6938 45.5849C67.6938 48.2303 67.3474 50.6196 66.6546 52.7529C65.9618 54.8009 65.0093 56.6356 63.7969 58.2569C62.5845 59.8783 61.1556 61.3716 59.5103 62.7369C57.9515 64.1023 56.2628 65.3823 54.4443 66.5769C53.1453 67.2596 51.7597 67.9849 50.2876 68.7529C48.902 69.4356 47.4731 70.1183 46.0009 70.8009C44.5288 71.4836 43.0566 72.2089 41.5844 72.9769C40.1122 73.6596 38.6401 74.3849 37.1679 75.1529H69.1227V96.9129H0.666687Z" fill="#F2F2F2"/>
<path d="M96.2107 123.838C96.1543 123.902 96.098 123.968 96.0435 124.034C95.2821 124.923 94.5942 125.874 93.9867 126.877C93.9377 126.953 93.8904 127.032 93.8468 127.109C92.4088 129.531 91.4298 132.2 90.9597 134.982C90.8543 135.611 90.775 136.244 90.7217 136.881C90.6835 137.371 90.6605 137.862 90.6526 138.353C90.6236 140.417 90.8053 142.712 89.4844 144.289C89.1313 144.704 88.7003 145.045 88.2161 145.292C87.8515 145.482 87.4661 145.628 87.0678 145.729H82.9488C82.7417 145.698 82.5346 145.665 82.3274 145.632C82.322 145.632 82.3165 145.63 82.3111 145.63L82.2693 145.645L82.0204 145.729L82.0095 145.733V145.729C82.0098 145.721 82.0091 145.714 82.0076 145.707C82.0079 145.693 82.0073 145.68 82.0058 145.667V145.665C82.004 145.628 82.0022 145.593 82.0022 145.557L81.9967 145.46C81.9967 145.46 81.9949 145.458 81.9967 145.458C81.9949 145.403 81.9913 145.348 81.9895 145.292C81.7987 140.517 82.2638 135.584 84.5023 131.38C85.2699 129.94 86.2583 128.631 87.4312 127.5C87.438 127.493 87.4453 127.486 87.453 127.48C89.7805 125.245 92.7894 123.783 95.9654 123.833C96.0471 123.833 96.1289 123.835 96.2107 123.838Z" fill="#F0F0F0"/>
<path d="M96.2199 123.942C92.6228 125.8 89.6988 128.753 87.8633 132.379C87.4543 133.153 87.1691 133.987 87.018 134.85C86.8979 135.696 87.0048 136.558 87.3278 137.348C87.6142 138.091 87.9926 138.817 88.0947 139.616C88.141 140.027 88.1006 140.442 87.9762 140.835C87.8518 141.229 87.6462 141.591 87.3729 141.899C86.7118 142.683 85.8101 143.182 84.9115 143.639C83.9138 144.146 82.8695 144.657 82.1767 145.574C82.0928 145.685 81.9265 145.548 82.0103 145.437C83.2155 143.841 85.3382 143.493 86.7837 142.196C87.4582 141.591 87.9557 140.777 87.8995 139.84C87.8505 139.02 87.4609 138.271 87.1645 137.522C86.8382 136.756 86.7032 135.921 86.7712 135.091C86.8781 134.223 87.131 133.379 87.519 132.597C88.3645 130.821 89.4822 129.189 90.831 127.763C92.3615 126.126 94.1587 124.765 96.145 123.739C96.268 123.675 96.342 123.879 96.2199 123.942Z" fill="white"/>
<path d="M88.386 131.176C87.8234 130.783 87.4178 130.202 87.2416 129.536C87.0653 128.87 87.13 128.163 87.4239 127.541C87.4838 127.415 87.6807 127.503 87.6207 127.629C87.3459 128.208 87.2858 128.867 87.4512 129.486C87.6165 130.106 87.9965 130.646 88.5226 131.009C88.6368 131.087 88.4996 131.255 88.386 131.176Z" fill="white"/>
<path d="M87.1333 136.99C88.5125 136.752 89.7516 135.998 90.6035 134.881C90.6879 134.77 90.8542 134.908 90.77 135.018C89.8813 136.18 88.5902 136.961 87.1545 137.206C87.0176 137.229 86.9972 137.014 87.1333 136.99Z" fill="white"/>
<path d="M92.4744 126.39C92.6607 126.587 92.8927 126.735 93.1498 126.82C93.4068 126.905 93.6808 126.924 93.9472 126.876C94.0837 126.851 94.1039 127.067 93.9683 127.092C93.6738 127.144 93.3713 127.122 93.087 127.029C92.8028 126.936 92.5456 126.774 92.3379 126.557C92.3166 126.538 92.3032 126.512 92.3005 126.484C92.2977 126.456 92.3057 126.427 92.3229 126.405C92.3411 126.383 92.3672 126.369 92.3956 126.366C92.424 126.363 92.4523 126.372 92.4744 126.39Z" fill="white"/>
<path d="M106.242 137.074C106.158 137.093 106.075 137.111 105.989 137.131H105.988C104.849 137.38 103.732 137.722 102.648 138.152C102.564 138.185 102.481 138.218 102.397 138.253H102.396C99.8113 139.312 97.4435 140.842 95.4112 142.767C95.4039 142.774 95.3967 142.78 95.3894 142.787C95.385 142.793 95.3802 142.797 95.3749 142.802L95.3658 142.811C94.5594 143.58 93.8117 144.409 93.1291 145.291C93.1291 145.293 93.1273 145.295 93.1255 145.297C93.0165 145.44 92.9056 145.582 92.7966 145.729H82.0203L82.0094 145.732V145.729H81.964C81.964 145.727 81.9658 145.725 81.9677 145.723C81.9677 145.721 81.9695 145.721 81.9695 145.72C81.9822 145.701 81.9949 145.683 82.0058 145.666V145.665C82.0085 145.659 82.0122 145.654 82.0167 145.65C82.0276 145.632 82.0403 145.617 82.0494 145.601C82.1221 145.498 82.1929 145.394 82.2656 145.291C82.3837 145.121 82.5037 144.951 82.6254 144.783L82.6255 144.782L82.6259 144.782L82.6265 144.781L82.6272 144.781V144.779C82.629 144.777 82.629 144.776 82.6308 144.774L82.6345 144.77C84.1334 142.681 85.8196 140.698 87.751 139.037C87.8091 138.986 87.8673 138.935 87.929 138.887C88.8036 138.142 89.7377 137.471 90.7217 136.881C91.2595 136.56 91.8136 136.267 92.3842 135.999C93.8557 135.316 95.4247 134.871 97.0337 134.678H97.0374C97.041 134.678 97.0446 134.676 97.0501 134.676C97.0555 134.676 97.0592 134.675 97.0628 134.675C100.262 134.301 103.542 134.958 106.051 136.923C106.117 136.974 106.178 137.023 106.242 137.074Z" fill="#F0F0F0"/>
<path d="M81.964 145.729H82.0095V145.732L82.0204 145.729H84.9038C84.0444 145.581 83.1868 145.465 82.3274 145.632C82.3074 145.635 82.2893 145.639 82.2693 145.645C82.1821 145.661 82.0949 145.683 82.0076 145.707C82.0022 145.709 81.9949 145.71 81.9895 145.712C81.9816 145.714 81.9741 145.718 81.9677 145.723C81.963 145.724 81.9587 145.726 81.955 145.729H81.964Z" fill="white"/>
<path d="M106.189 137.164C106.122 137.153 106.057 137.141 105.989 137.131H105.988C104.586 136.901 103.163 136.829 101.745 136.916C101.674 136.919 101.601 136.925 101.529 136.928C99.5609 137.066 97.626 137.51 95.7927 138.244C95.7909 138.244 95.7909 138.244 95.7909 138.245C95.7709 138.253 95.7509 138.26 95.7328 138.267C95.3058 138.441 94.8843 138.631 94.4718 138.836C93.6826 139.206 92.956 139.699 92.3187 140.296C91.8086 140.803 91.4223 141.422 91.1904 142.105C91.1668 142.175 91.1432 142.242 91.1214 142.312C91.105 142.367 91.0887 142.423 91.0723 142.478C90.8579 143.245 90.7253 144.053 90.3292 144.754C90.2189 144.949 90.0846 145.13 89.9295 145.292C89.7692 145.46 89.5885 145.606 89.3916 145.729H88.9338C89.1844 145.62 89.4167 145.472 89.6224 145.292C89.7824 145.153 89.9224 144.992 90.0385 144.814C90.4891 144.13 90.6272 143.296 90.8379 142.519C90.8724 142.392 90.9088 142.27 90.9488 142.147C91.1585 141.476 91.51 140.859 91.979 140.338C92.5832 139.71 93.2892 139.19 94.0666 138.8C94.5572 138.54 95.0611 138.305 95.5783 138.094C95.6456 138.064 95.7128 138.039 95.78 138.013C99.0458 136.734 102.592 136.357 106.051 136.923C106.118 136.932 106.184 136.945 106.251 136.956C106.387 136.98 106.326 137.188 106.189 137.164Z" fill="white"/>
<path d="M95.6084 138.192C95.394 137.537 95.4177 136.827 95.6753 136.189C95.9328 135.55 96.4074 135.025 97.0143 134.706C97.1374 134.642 97.2421 134.831 97.1189 134.895C96.5532 135.191 96.1111 135.681 95.8725 136.276C95.6339 136.871 95.6144 137.533 95.8176 138.141C95.8616 138.273 95.6521 138.323 95.6084 138.192Z" fill="white"/>
<path d="M91.1312 142.074C92.3751 142.72 93.815 142.869 95.1636 142.493C95.2972 142.456 95.3477 142.667 95.2143 142.704C93.8102 143.093 92.3121 142.934 91.0191 142.259C90.8959 142.195 91.0087 142.01 91.1312 142.074Z" fill="white"/>
<path d="M101.735 136.848C101.766 137.119 101.863 137.378 102.017 137.601C102.171 137.825 102.379 138.007 102.62 138.13C102.744 138.193 102.631 138.377 102.508 138.315C102.242 138.178 102.013 137.977 101.842 137.73C101.671 137.483 101.562 137.198 101.526 136.899C101.52 136.872 101.525 136.843 101.54 136.818C101.555 136.794 101.578 136.776 101.605 136.769C101.633 136.762 101.662 136.767 101.686 136.782C101.711 136.796 101.728 136.821 101.735 136.848Z" fill="white"/>
<path d="M111.671 47.5073C111.671 46.9737 111.46 46.4621 111.085 46.0848C110.711 45.7075 110.202 45.4954 109.672 45.4951H56.0726C55.5444 45.4962 55.038 45.7072 54.6637 46.0824C54.2894 46.4575 54.0774 46.9664 54.074 47.4981C52.2643 64.8705 51.9645 81.9356 53.1764 98.3604C53.3236 100.393 53.4956 102.415 53.6924 104.426C53.7978 105.504 53.9098 106.578 54.0285 107.649C54.0431 107.788 54.0576 107.927 54.074 108.066C54.0778 108.598 54.2899 109.106 54.6642 109.481C55.0385 109.856 55.5447 110.067 56.0726 110.068H109.672C110.202 110.067 110.711 109.855 111.085 109.478C111.46 109.101 111.671 108.589 111.671 108.055V108.035C109.503 88.6873 109.503 68.3296 111.671 47.5256V47.5073Z" fill="white"/>
<path d="M111.671 47.5073C111.671 46.9737 111.46 46.4621 111.085 46.0848C110.711 45.7075 110.202 45.4954 109.672 45.4951H56.0726C55.5444 45.4962 55.038 45.7072 54.6637 46.0824C54.2894 46.4575 54.0774 46.9664 54.074 47.4981C52.2643 64.8705 51.9645 81.9356 53.1764 98.3604C53.3236 100.393 53.4956 102.415 53.6924 104.426C53.7978 105.504 53.9098 106.578 54.0285 107.649C54.0431 107.788 54.0576 107.927 54.074 108.066C54.0778 108.598 54.2899 109.106 54.6642 109.481C55.0385 109.856 55.5447 110.067 56.0726 110.068H109.672C110.202 110.067 110.711 109.855 111.085 109.478C111.46 109.101 111.671 108.589 111.671 108.055V108.035C109.503 88.6873 109.503 68.3296 111.671 47.5256V47.5073ZM111.308 108.066C111.304 108.501 111.131 108.917 110.824 109.223C110.518 109.529 110.104 109.701 109.672 109.702H56.0726C55.6391 109.701 55.2235 109.527 54.917 109.219C54.6105 108.91 54.438 108.492 54.4373 108.055V108.035C54.4246 107.918 54.4119 107.799 54.3992 107.682C54.2738 106.563 54.1569 105.44 54.0485 104.315C53.8577 102.341 53.6888 100.356 53.5416 98.3604C52.3297 81.9447 52.6277 64.8906 54.4373 47.5256V47.5073C54.438 47.0709 54.6105 46.6525 54.917 46.3439C55.2235 46.0353 55.6391 45.8616 56.0726 45.861H109.672C110.104 45.8611 110.519 46.0334 110.825 46.3401C111.132 46.6468 111.305 47.0631 111.308 47.4981C109.14 68.3186 109.14 88.6983 111.308 108.066Z" fill="#E4E4E4"/>
<path d="M59.7672 64.2061C59.6293 64.2064 59.4972 64.2618 59.3998 64.3601C59.3025 64.4584 59.2478 64.5916 59.2478 64.7304C59.2478 64.8692 59.3025 65.0024 59.3998 65.1006C59.4972 65.1989 59.6293 65.2543 59.7672 65.2547H103.325C103.463 65.2543 103.595 65.1989 103.692 65.1006C103.79 65.0024 103.844 64.8692 103.844 64.7304C103.844 64.5916 103.79 64.4584 103.692 64.3601C103.595 64.2618 103.463 64.2064 103.325 64.2061H59.7672Z" fill="#E6E6E6"/>
<path d="M59.7672 67.3525C59.6292 67.3528 59.497 67.4082 59.3995 67.5065C59.3021 67.6048 59.2473 67.738 59.2473 67.8769C59.2473 68.0158 59.3021 68.149 59.3995 68.2473C59.497 68.3456 59.6292 68.4009 59.7672 68.4012H89.3369C89.4749 68.4009 89.6071 68.3456 89.7046 68.2473C89.802 68.149 89.8568 68.0158 89.8568 67.8769C89.8568 67.738 89.802 67.6048 89.7046 67.5065C89.6071 67.4082 89.4749 67.3528 89.3369 67.3525H59.7672Z" fill="#E6E6E6"/>
<path d="M59.7672 70.4277C59.6292 70.428 59.497 70.4833 59.3995 70.5816C59.3021 70.6799 59.2473 70.8132 59.2473 70.9521C59.2473 71.0909 59.3021 71.2242 59.3995 71.3225C59.497 71.4208 59.6292 71.4761 59.7672 71.4764H103.325C103.463 71.4761 103.595 71.4208 103.693 71.3225C103.79 71.2242 103.845 71.0909 103.845 70.9521C103.845 70.8132 103.79 70.6799 103.693 70.5816C103.595 70.4833 103.463 70.428 103.325 70.4277H59.7672Z" fill="#E6E6E6"/>
<path d="M59.7672 73.5737C59.6293 73.5741 59.4972 73.6295 59.3998 73.7278C59.3025 73.8261 59.2478 73.9592 59.2478 74.0981C59.2478 74.2369 59.3025 74.37 59.3998 74.4683C59.4972 74.5666 59.6293 74.622 59.7672 74.6224H89.3369C89.4748 74.622 89.6069 74.5666 89.7043 74.4683C89.8017 74.37 89.8564 74.2369 89.8564 74.0981C89.8564 73.9592 89.8017 73.8261 89.7043 73.7278C89.6069 73.6295 89.4748 73.5741 89.3369 73.5737H59.7672Z" fill="#E6E6E6"/>
<path d="M59.7672 81.9502C59.6293 81.9506 59.4972 82.006 59.3998 82.1043C59.3025 82.2025 59.2478 82.3357 59.2478 82.4745C59.2478 82.6133 59.3025 82.7465 59.3998 82.8448C59.4972 82.9431 59.6293 82.9985 59.7672 82.9988H103.325C103.463 82.9985 103.595 82.9431 103.692 82.8448C103.79 82.7465 103.844 82.6133 103.844 82.4745C103.844 82.3357 103.79 82.2025 103.692 82.1043C103.595 82.006 103.463 81.9506 103.325 81.9502H59.7672Z" fill="#E6E6E6"/>
<path d="M59.7672 85.0967C59.6292 85.0969 59.497 85.1523 59.3995 85.2506C59.3021 85.3489 59.2473 85.4821 59.2473 85.621C59.2473 85.7599 59.3021 85.8931 59.3995 85.9914C59.497 86.0897 59.6292 86.1451 59.7672 86.1453H89.3369C89.4749 86.1451 89.6071 86.0897 89.7046 85.9914C89.802 85.8931 89.8568 85.7599 89.8568 85.621C89.8568 85.4821 89.802 85.3489 89.7046 85.2506C89.6071 85.1523 89.4749 85.0969 89.3369 85.0967H59.7672Z" fill="#E6E6E6"/>
<path d="M59.7672 88.1714C59.6292 88.1716 59.497 88.227 59.3995 88.3253C59.3021 88.4236 59.2473 88.5568 59.2473 88.6957C59.2473 88.8346 59.3021 88.9678 59.3995 89.0661C59.497 89.1644 59.6292 89.2198 59.7672 89.22H103.325C103.463 89.2198 103.595 89.1644 103.693 89.0661C103.79 88.9678 103.845 88.8346 103.845 88.6957C103.845 88.5568 103.79 88.4236 103.693 88.3253C103.595 88.227 103.463 88.1716 103.325 88.1714H59.7672Z" fill="#E6E6E6"/>
<path d="M59.7672 91.3184C59.6293 91.3187 59.4972 91.3741 59.3998 91.4724C59.3025 91.5707 59.2478 91.7039 59.2478 91.8427C59.2478 91.9815 59.3025 92.1147 59.3998 92.2129C59.4972 92.3112 59.6293 92.3666 59.7672 92.367H89.3369C89.4748 92.3666 89.6069 92.3112 89.7043 92.2129C89.8017 92.1147 89.8564 91.9815 89.8564 91.8427C89.8564 91.7039 89.8017 91.5707 89.7043 91.4724C89.6069 91.3741 89.4748 91.3187 89.3369 91.3184H59.7672Z" fill="#E6E6E6"/>
<path d="M97.2873 100.862L94.739 101.71C94.3143 101.851 93.8896 101.993 93.4649 102.134C93.0715 102.264 92.6459 102.419 92.2248 102.363C91.9338 102.325 91.602 102.156 91.5114 101.855C91.4256 101.569 91.6075 101.271 91.8277 101.102C92.4359 100.636 93.2048 101.111 93.6356 101.593C94.1627 102.183 94.4609 102.944 94.9552 103.562C95.3953 104.116 95.9531 104.563 96.5877 104.871C97.8489 105.47 99.3872 105.407 100.512 104.533C101.855 103.49 101.992 101.682 101.999 100.104C101.997 100.033 101.967 99.9659 101.916 99.9164C101.866 99.867 101.798 99.8394 101.727 99.8394C101.656 99.8394 101.588 99.867 101.537 99.9164C101.487 99.9659 101.457 100.033 101.454 100.104C101.448 101.534 101.367 103.286 100.072 104.181C98.8322 105.038 97.2022 104.811 96.0603 103.898C95.424 103.389 95.0326 102.725 94.6148 102.038C94.207 101.368 93.7007 100.718 92.9332 100.457C92.6041 100.336 92.2438 100.334 91.9132 100.45C91.5826 100.567 91.302 100.794 91.1188 101.095C91.0351 101.236 90.9824 101.395 90.9642 101.558C90.946 101.722 90.9626 101.888 91.0131 102.045C91.0635 102.202 91.1466 102.346 91.2567 102.468C91.3669 102.591 91.5016 102.688 91.652 102.753C92.5419 103.18 93.5599 102.68 94.4168 102.395L97.4322 101.391C97.7637 101.281 97.6217 100.751 97.2873 100.862Z" fill="#6CAEE4"/>
<path d="M89.7359 141.197L87.9489 141.79L84.8278 135.133L87.4651 134.258L89.7359 141.197Z" fill="#9F616A"/>
<path d="M91.0105 142.708L90.8888 142.337L90.569 141.358L90.351 140.692L89.755 140.89L89.6315 140.881L87.9944 140.769L87.7764 140.755L87.453 140.733L87.1187 140.709L86.1847 142.075H86.1829C85.8338 142.19 85.5108 142.373 85.2326 142.614C84.9544 142.855 84.7265 143.15 84.5622 143.48C84.5422 143.52 84.5241 143.561 84.5059 143.601C84.4608 143.699 84.4226 143.801 84.3914 143.905C84.25 144.353 84.2238 144.83 84.3151 145.291C84.3386 145.405 84.3683 145.518 84.4041 145.63L84.4096 145.648L84.4314 145.715L84.5622 145.672L85.7105 145.291L89.7332 143.958L90.5309 143.692L90.7761 143.61H90.778L91.254 143.453L91.0105 142.708Z" fill="#142852"/>
<path d="M72.7984 142.762L70.9171 142.762L70.0221 135.457L72.7987 135.457L72.7984 142.762Z" fill="#9F616A"/>
<path d="M69.7877 110.736L68.9537 112.188C68.9537 112.188 68.0373 112.44 68.3368 115.448C68.5482 117.571 68.6168 127.08 69.1493 133.257C69.3709 135.828 69.6728 137.822 70.0989 138.466L70.3611 138.703L73.0987 138.966L73.1677 138.942L74.173 131.794C74.3535 130.511 74.3264 129.207 74.093 127.932L73.9113 125.92L76.4319 115.732C76.4319 115.732 78.9987 122.261 80.634 128.481C81.0276 129.978 82.5228 130.93 83.0897 132.215C83.2797 132.645 83.4663 133.062 83.6483 133.463C84.8473 136.098 85.4483 138.016 85.9031 138.176H86.2665L88.4468 137.444L88.8757 136.359L85.5397 126.469L83.0416 110.5C78.2817 107.924 73.8167 107.637 69.7877 110.736Z" fill="#142852"/>
<path d="M83.423 89.2202C83.2586 88.8557 83.0654 88.5052 82.8452 88.172C82.3418 87.3821 81.6422 86.7383 80.8157 86.3043L80.0998 86.1452L78.8171 85.8598L78.1412 85.097L77.0328 83.8477H73.2172L72.7067 85.097L72.2779 86.1452L72.0944 86.5915L68.8275 88.236C68.8257 88.236 68.8257 88.236 68.8239 88.2378C68.8675 88.5671 68.9105 88.8945 68.9529 89.2202C69.0455 89.9281 69.1328 90.6275 69.2145 91.3183C69.2563 91.6695 69.2963 92.0189 69.3344 92.3665C69.4562 93.4567 69.5609 94.528 69.6488 95.5804C69.7269 96.5207 69.7893 97.4475 69.8359 98.3609C69.9495 100.435 69.958 102.514 69.8614 104.589C69.8359 105.078 70.3174 105.634 70.2792 106.111C70.2157 106.891 69.6179 107.582 69.5125 108.327C69.4471 108.784 69.4762 109.271 69.3617 109.702C69.3299 109.829 69.2822 109.95 69.22 110.064C69.22 110.066 69.2181 110.066 69.2181 110.068C67.91 112.42 68.9365 111.297 68.8148 111.826L68.8729 111.841C68.9002 111.848 68.9838 111.87 69.1182 111.901C69.8868 112.086 73.0555 109.091 75.1832 109.091C76.4605 109.091 79.8418 111.206 80.9738 111.36C81.8695 111.48 82.669 111.59 83.145 111.167C83.2831 111.044 83.3887 110.888 83.4521 110.714L83.4575 110.697L83.4557 110.681L83.4103 110.068L83.383 109.702L82.9942 104.452C82.7771 104.181 82.6398 103.854 82.5981 103.509C82.5563 103.163 82.6117 102.812 82.758 102.497L82.8379 102.327L82.5436 98.3609L82.4891 97.62L82.4691 97.3694V97.3676L82.3274 95.4524L82.669 94.4061V94.4042L83.334 92.3665L83.6756 91.3183L83.8899 90.6598L83.9045 90.6159C83.7901 90.1358 83.6288 89.6683 83.423 89.2202Z" fill="#6CAEE4"/>
<path d="M86.7378 108.136L83.0749 98.6048L81.3736 95.1247L84.645 93.3052L87.2797 97.9788L89.0459 107.744C89.3239 107.935 89.5388 108.205 89.663 108.52C89.7872 108.835 89.8151 109.18 89.7429 109.511C89.6708 109.842 89.502 110.144 89.2583 110.378C89.0145 110.611 88.7069 110.766 88.375 110.823C88.043 110.879 87.7019 110.834 87.3955 110.694C87.0891 110.554 86.8313 110.324 86.6553 110.036C86.4793 109.747 86.3931 109.411 86.4078 109.073C86.4225 108.734 86.5374 108.408 86.7378 108.136Z" fill="#9F616A"/>
<path d="M86.8116 95.0058L85.8741 94.3949L84.7966 92.3662L84.2406 91.3181L83.89 90.6595L83.741 90.3778L82.0567 89.2199L80.9193 88.437L79.9926 89.2199L79.5511 89.5931L79.9835 91.3181L80.2452 92.3662L80.8157 94.64L82.4891 97.6198L82.9052 98.3607L83.1432 98.7869L83.145 98.7906L83.1777 98.8473L87.4058 98.6698L87.5384 98.6643L87.5457 98.3607L87.5493 98.2509C87.5511 98.196 87.5511 98.1412 87.5511 98.0863C87.5506 97.015 87.2971 95.9592 86.8116 95.0058Z" fill="#6CAEE4"/>
<path d="M54.8107 104.345L62.3039 97.4517L64.9082 94.5933L67.779 97.0025L64.4087 101.17L56.0108 106.369C55.9348 106.699 55.7624 106.999 55.5159 107.229C55.2694 107.46 54.96 107.611 54.6274 107.664C54.2949 107.716 53.9543 107.667 53.6496 107.523C53.3448 107.379 53.0898 107.147 52.9172 106.856C52.7446 106.565 52.6624 106.229 52.6811 105.891C52.6998 105.552 52.8185 105.227 53.0221 104.957C53.2256 104.687 53.5047 104.485 53.8234 104.376C54.1421 104.267 54.4859 104.256 54.8107 104.345Z" fill="#9F616A"/>
<path d="M70.2793 92.3659L70.2647 91.3178L70.2375 89.2196L70.2266 88.4056L70.1957 88.3837C70.0265 88.2719 69.8347 88.1994 69.6342 88.1715C69.458 88.1421 69.2781 88.1421 69.1019 88.1715C69.009 88.186 68.9173 88.2074 68.8275 88.2355C68.8257 88.2355 68.8257 88.2355 68.8239 88.2373C68.2853 88.432 67.8097 88.771 67.4485 89.2178L67.4466 89.2196C66.9018 89.8722 66.4188 90.5746 66.004 91.3178C65.7987 91.669 65.6025 92.0239 65.4189 92.3659C64.7249 93.6665 64.2252 94.7933 64.2161 94.8135L62.1412 97.5262L62.1703 97.5756L62.6263 98.3604L64.2979 101.238L64.5632 101.695L65.2409 101.331C66.0309 100.907 66.6538 100.224 67.007 99.3957L67.2486 98.4665L67.3376 98.3604L69.6488 95.5799L70.3102 94.7824L70.2793 92.3659Z" fill="#6CAEE4"/>
<path d="M78.1984 80.2674C78.5078 78.3477 77.2129 76.5389 75.3061 76.2274C73.3993 75.9159 71.6027 77.2195 71.2932 79.1393C70.9838 81.059 72.2787 82.8678 74.1856 83.1793C76.0924 83.4908 77.889 82.1871 78.1984 80.2674Z" fill="#9F616A"/>
<path d="M71.3646 77.3948C71.2092 76.847 70.8983 76.3775 71.0537 76.3775C71.2092 76.3775 71.2869 75.9862 71.2869 75.9862C71.2869 75.9862 71.4424 75.908 71.5201 75.9862C71.5978 76.0645 71.6755 75.4385 71.6755 75.4385C71.6755 75.4385 71.7533 75.2037 71.831 75.3602C71.9087 75.5167 71.9087 75.4385 71.9864 75.2037C72.0642 74.9689 72.4528 74.8124 72.4528 74.8124C72.4528 74.8124 73.9297 74.8907 74.1628 74.5777C74.396 74.2647 77.0388 74.4994 77.5829 74.8907C78.127 75.282 80.2706 75.9815 78.9987 78.1766C79.7255 79.457 78.6405 81.7408 78.3601 82.0118C77.9168 82.4403 77.6099 82.5948 75.5122 83.015C75.1017 83.0973 74.093 79.6399 74.093 79.6399C74.093 79.6399 71.5201 77.9426 71.3646 77.3948Z" fill="#142852"/>
<path d="M72.912 142.477L72.7994 142.431L70.7753 141.6L70.4646 141.474L69.1528 142.477H69.151C68.4098 142.477 67.6992 142.774 67.1753 143.302C66.6514 143.83 66.3569 144.546 66.3565 145.292V145.383H73.5389V142.477H72.912Z" fill="#142852"/>
<path d="M94.023 145.509C94.0231 145.538 94.0177 145.566 94.0069 145.593C93.996 145.619 93.9802 145.644 93.9601 145.664C93.94 145.684 93.9161 145.701 93.8898 145.712C93.8635 145.723 93.8353 145.729 93.8068 145.729H56.8684C56.8108 145.729 56.7556 145.706 56.7149 145.665C56.6742 145.624 56.6513 145.568 56.6513 145.51C56.6513 145.452 56.6742 145.397 56.7149 145.356C56.7556 145.315 56.8108 145.292 56.8684 145.292H93.8068C93.8641 145.292 93.919 145.315 93.9596 145.355C94.0001 145.396 94.0229 145.451 94.023 145.509Z" fill="#CCCCCC"/>
<path d="M68.3856 57.6965H60.0662C59.9584 57.6963 59.8551 57.6532 59.7789 57.5765C59.7027 57.4998 59.6599 57.3958 59.6598 57.2873V55.9453C59.6599 55.8368 59.7027 55.7328 59.7789 55.6561C59.8551 55.5794 59.9584 55.5363 60.0662 55.5361H68.3856C68.4934 55.5363 68.5967 55.5794 68.6728 55.6561C68.749 55.7328 68.7919 55.8368 68.792 55.9453V57.2873C68.7919 57.3958 68.749 57.4998 68.6728 57.5765C68.5967 57.6532 68.4934 57.6963 68.3856 57.6965Z" fill="#6CAEE4"/>
</g>
<defs>
<clipPath id="clip0_349_164">
<rect width="145" height="145" fill="white" transform="translate(0.666687 0.880859)"/>
</clipPath>
</defs>
</svg>
