<svg width="146" height="146" viewBox="0 0 146 146" fill="none" xmlns="http://www.w3.org/2000/svg">
<g clip-path="url(#clip0_349_205)">
<path d="M46.8933 56.5125C50.1733 57.0725 53.0533 58.3925 55.5333 60.4725C58.0933 62.4725 60.0933 64.9925 61.5333 68.0325C62.9733 71.0725 63.6933 74.4325 63.6933 78.1125C63.6933 83.1525 62.2933 87.4725 59.4933 91.0725C56.7733 94.7525 52.8533 97.5925 47.7333 99.5925C42.6133 101.593 36.5333 102.593 29.4933 102.593C23.4133 102.593 17.9733 101.793 13.1733 100.193C8.37334 98.5925 4.09334 96.1925 0.333344 92.9925L11.9733 76.4325C14.2933 78.1925 16.7333 79.5125 19.2933 80.3925C21.9333 81.2725 24.9333 81.7125 28.2933 81.7125C32.3733 81.7125 35.3333 81.1125 37.1733 79.9125C39.0933 78.6325 40.0533 76.6325 40.0533 73.9125C40.0533 70.8725 38.8533 68.7125 36.4533 67.4325C34.0533 66.0725 30.1333 65.3925 24.6933 65.3925H20.9733V49.5525H25.1733C29.0133 49.5525 32.0933 48.7925 34.4133 47.2725C36.7333 45.7525 37.8933 43.7525 37.8933 41.2725C37.8933 39.9925 37.5733 38.9125 36.9333 38.0325C36.3733 37.0725 35.4933 36.3525 34.2933 35.8725C33.1733 35.3925 31.7733 35.1525 30.0933 35.1525C27.3733 35.1525 24.7733 35.8725 22.2933 37.3125C19.8133 38.6725 17.6533 40.7525 15.8133 43.5525L1.41334 26.6325C3.33334 24.4725 5.89334 22.5925 9.09334 20.9925C12.3733 19.3925 16.0533 18.1525 20.1333 17.2725C24.2133 16.3125 28.4133 15.8325 32.7333 15.8325C38.6533 15.8325 43.8133 16.7125 48.2133 18.4725C52.6933 20.2325 56.1733 22.7125 58.6533 25.9125C61.1333 29.0325 62.3733 32.7125 62.3733 36.9525C62.3733 40.0725 61.6933 43.0325 60.3333 45.8325C58.9733 48.6325 57.1333 50.9925 54.8133 52.9125C52.4933 54.7525 49.8533 55.9525 46.8933 56.5125Z" fill="#F2F2F2"/>
<path d="M107.051 67.3821H62.9058C62.148 67.3812 61.4214 67.0781 60.8856 66.5393C60.3498 66.0004 60.0483 65.2698 60.0475 64.5077V29.6396C60.0481 29.0813 60.2689 28.546 60.6615 28.1512C61.054 27.7564 61.5863 27.5343 62.1415 27.5337H107.779C108.344 27.5343 108.885 27.7603 109.285 28.1619C109.684 28.5635 109.909 29.108 109.909 29.676V64.5077C109.908 65.2698 109.607 66.0004 109.071 66.5393C108.535 67.0781 107.809 67.3812 107.051 67.3821Z" fill="#F2F2F2"/>
<path d="M65.6774 64.5073H104.279C105.014 64.5073 105.719 64.2136 106.239 63.6909C106.759 63.1682 107.051 62.4592 107.051 61.72V34.9709C107.051 34.2317 106.759 33.5227 106.239 33C105.719 32.4773 105.014 32.1836 104.279 32.1836H65.6774C64.9423 32.1836 64.2373 32.4773 63.7176 33C63.1978 33.5227 62.9058 34.2317 62.9058 34.9709V61.72C62.9058 62.4592 63.1978 63.1682 63.7176 63.6909C64.2373 64.2136 64.9423 64.5073 65.6774 64.5073Z" fill="white"/>
<path d="M109.87 29.4749H60.0074V28.0115C60.0085 27.2469 60.3112 26.5139 60.849 25.9734C61.3868 25.433 62.1158 25.1291 62.8761 25.1284H107.001C107.761 25.129 108.49 25.4329 109.028 25.9734C109.566 26.5139 109.868 27.2469 109.87 28.0115V29.4749Z" fill="#CCCCCC"/>
<path d="M65.2208 28.052C65.6306 28.052 65.9628 27.7179 65.9628 27.3058C65.9628 26.8937 65.6306 26.5596 65.2208 26.5596C64.811 26.5596 64.4788 26.8937 64.4788 27.3058C64.4788 27.7179 64.811 28.052 65.2208 28.052Z" fill="white"/>
<path d="M68.0373 28.052C68.4471 28.052 68.7793 27.7179 68.7793 27.3058C68.7793 26.8937 68.4471 26.5596 68.0373 26.5596C67.6275 26.5596 67.2952 26.8937 67.2952 27.3058C67.2952 27.7179 67.6275 28.052 68.0373 28.052Z" fill="white"/>
<path d="M70.8537 28.052C71.2635 28.052 71.5958 27.7179 71.5958 27.3058C71.5958 26.8937 71.2635 26.5596 70.8537 26.5596C70.4439 26.5596 70.1117 26.8937 70.1117 27.3058C70.1117 27.7179 70.4439 28.052 70.8537 28.052Z" fill="white"/>
<path d="M68.5181 44.7188H66.6064C66.5027 44.7187 66.4033 44.6772 66.33 44.6035C66.2567 44.5298 66.2154 44.4298 66.2153 44.3256V42.403C66.2154 42.2988 66.2567 42.1988 66.33 42.1251C66.4033 42.0513 66.5027 42.0099 66.6064 42.0098H68.5181C68.6218 42.0099 68.7212 42.0514 68.7945 42.1251C68.8678 42.1988 68.909 42.2988 68.9091 42.403V44.3256C68.909 44.4298 68.8678 44.5298 68.7945 44.6035C68.7212 44.6772 68.6218 44.7187 68.5181 44.7188Z" fill="#FFD335"/>
<path d="M68.5181 49.6998H66.6064C66.5027 49.6996 66.4033 49.6582 66.33 49.5845C66.2567 49.5107 66.2154 49.4108 66.2153 49.3065V47.384C66.2154 47.2797 66.2567 47.1798 66.33 47.106C66.4033 47.0323 66.5027 46.9908 66.6064 46.9907H68.5181C68.6218 46.9908 68.7212 47.0323 68.7945 47.106C68.8678 47.1798 68.909 47.2797 68.9091 47.384V49.3065C68.909 49.4108 68.8678 49.5107 68.7945 49.5845C68.7212 49.6582 68.6218 49.6996 68.5181 49.6998Z" fill="#3F3D56"/>
<path d="M68.5181 54.6812H66.6064C66.5027 54.6811 66.4033 54.6396 66.33 54.5659C66.2567 54.4922 66.2154 54.3922 66.2153 54.288V52.3654C66.2154 52.2612 66.2567 52.1612 66.33 52.0875C66.4033 52.0138 66.5027 51.9723 66.6064 51.9722H68.5181C68.6218 51.9723 68.7212 52.0138 68.7945 52.0875C68.8678 52.1612 68.909 52.2612 68.9091 52.3654V54.288C68.909 54.3922 68.8678 54.4922 68.7945 54.5659C68.7212 54.6396 68.6218 54.6811 68.5181 54.6812Z" fill="#CCCCCC"/>
<path d="M81.0314 43.7577H71.8202C71.7166 43.7575 71.6174 43.7159 71.5442 43.6422C71.4711 43.5685 71.43 43.4686 71.43 43.3644C71.43 43.2603 71.4711 43.1604 71.5442 43.0867C71.6174 43.0129 71.7166 42.9714 71.8202 42.9712H81.0314C81.0828 42.9711 81.1337 42.9812 81.1813 43.0009C81.2288 43.0206 81.272 43.0496 81.3084 43.0861C81.3448 43.1226 81.3737 43.166 81.3934 43.2138C81.4131 43.2615 81.4232 43.3127 81.4232 43.3644C81.4232 43.4162 81.4131 43.4674 81.3934 43.5151C81.3737 43.5629 81.3448 43.6063 81.3084 43.6428C81.272 43.6793 81.2288 43.7083 81.1813 43.728C81.1337 43.7477 81.0828 43.7578 81.0314 43.7577Z" fill="#FFD335"/>
<path d="M81.0314 48.7386H71.8202C71.7166 48.7384 71.6174 48.6969 71.5442 48.6232C71.4711 48.5494 71.43 48.4495 71.43 48.3454C71.43 48.2412 71.4711 48.1413 71.5442 48.0676C71.6174 47.9939 71.7166 47.9524 71.8202 47.9521H81.0314C81.1351 47.9521 81.2345 47.9936 81.3079 48.0673C81.3812 48.1411 81.4224 48.2411 81.4224 48.3454C81.4224 48.4497 81.3812 48.5497 81.3079 48.6235C81.2345 48.6972 81.1351 48.7386 81.0314 48.7386Z" fill="#CCCCCC"/>
<path d="M81.0314 53.7201H71.8202C71.7166 53.7199 71.6174 53.6783 71.5442 53.6046C71.4711 53.5309 71.43 53.431 71.43 53.3268C71.43 53.2227 71.4711 53.1228 71.5442 53.0491C71.6174 52.9753 71.7166 52.9338 71.8202 52.9336H81.0314C81.0828 52.9335 81.1337 52.9436 81.1813 52.9633C81.2288 52.983 81.272 53.012 81.3084 53.0485C81.3448 53.085 81.3737 53.1284 81.3934 53.1762C81.4131 53.2239 81.4232 53.2751 81.4232 53.3268C81.4232 53.3786 81.4131 53.4298 81.3934 53.4775C81.3737 53.5253 81.3448 53.5687 81.3084 53.6052C81.272 53.6417 81.2288 53.6707 81.1813 53.6904C81.1337 53.7101 81.0828 53.7202 81.0314 53.7201Z" fill="#CCCCCC"/>
<path d="M103.726 48.4702C103.736 48.3049 103.742 48.1384 103.742 47.9706C103.742 45.7844 102.878 43.6877 101.341 42.1419C99.8035 40.596 97.7187 39.7275 95.5447 39.7275V48.4702H103.726Z" fill="#6CAEE4"/>
<path d="M94.9238 49.2197V40.4771C93.3238 40.477 91.7587 40.9478 90.4216 41.8316C89.0845 42.7153 88.0338 43.9733 87.3991 45.4503C86.7644 46.9274 86.5735 48.5589 86.8498 50.1438C87.1262 51.7287 87.8577 53.1975 88.9543 54.3693C90.0508 55.5411 91.4644 56.3645 93.0207 56.738C94.577 57.1115 96.208 57.0188 97.7126 56.4713C99.2171 55.9238 100.529 54.9454 101.488 53.6568C102.446 52.3682 103.008 50.8258 103.105 49.2197H94.9238Z" fill="#3F3D56"/>
<path d="M145.167 145.294H19.1242C19.0802 145.294 19.038 145.275 19.0069 145.243C18.9758 145.21 18.9583 145.166 18.9583 145.12C18.9583 145.073 18.9758 145.029 19.0069 144.996C19.038 144.964 19.0802 144.945 19.1242 144.945H145.167C145.211 144.945 145.254 144.964 145.285 144.996C145.316 145.029 145.333 145.073 145.333 145.12C145.333 145.166 145.316 145.21 145.285 145.243C145.254 145.275 145.211 145.294 145.167 145.294Z" fill="#CCCCCC"/>
<path d="M106.385 97.0632C106.443 97.1421 106.494 97.2255 106.539 97.3125L115.22 98.2942L116.483 96.5787L119.306 98.1565L116.821 102.323L106.185 99.5165C105.915 99.7781 105.571 99.9507 105.201 100.011C104.83 100.072 104.45 100.018 104.111 99.8556C103.772 99.6937 103.49 99.4317 103.302 99.1046C103.115 98.7775 103.031 98.4008 103.061 98.0245C103.092 97.6482 103.236 97.2902 103.474 96.9981C103.712 96.706 104.032 96.4937 104.393 96.3893C104.754 96.285 105.138 96.2935 105.493 96.4139C105.849 96.5343 106.16 96.7607 106.385 97.0632Z" fill="#FFB8B8"/>
<path d="M62.09 94.8088C61.8704 94.9385 61.6253 95.0183 61.3718 95.0425C61.1182 95.0667 60.8625 95.0347 60.6226 94.9487C60.3827 94.8627 60.1645 94.7249 59.9833 94.545C59.8021 94.365 59.6623 94.1473 59.5739 93.9072L53.3849 94.037L55.0995 91.2998L60.7137 91.5962C61.1248 91.4735 61.5663 91.5066 61.9546 91.6893C62.3429 91.8721 62.6511 92.1917 62.8208 92.5877C62.9904 92.9837 63.0097 93.4285 62.875 93.8379C62.7403 94.2472 62.461 94.5927 62.09 94.8088Z" fill="#FFB8B8"/>
<path d="M59.3699 94.0254C59.3208 94.1904 59.2191 94.3346 59.0804 94.4357C58.9418 94.5369 58.774 94.5894 58.6028 94.5852L47.276 94.2959L37.0197 91.2421C36.7375 91.1581 36.4747 91.0185 36.2466 90.8314C36.0185 90.6444 35.8296 90.4136 35.691 90.1524C35.5524 89.8913 35.4668 89.6051 35.4392 89.3104C35.4116 89.0157 35.4425 88.7185 35.5301 88.4359C35.6177 88.1533 35.7604 87.8911 35.9497 87.6645C36.139 87.4378 36.3712 87.2513 36.6329 87.1157C36.8945 86.9801 37.1803 86.8982 37.4737 86.8747C37.7671 86.8512 38.0622 86.8866 38.3419 86.9789L47.608 90.0341L58.7294 91.1134C58.9242 91.1333 59.1046 91.2258 59.235 91.3726C59.3654 91.5195 59.4364 91.7102 59.434 91.907L59.4018 93.8148C59.4007 93.8861 59.39 93.957 59.3699 94.0254Z" fill="#3F3D56"/>
<path d="M42.9437 142.997L45.0673 142.997L46.0777 134.759L42.9434 134.759L42.9437 142.997Z" fill="#FFB8B8"/>
<path d="M42.4019 142.299L46.5843 142.299H46.5845C46.9345 142.299 47.2811 142.369 47.6045 142.503C47.9279 142.638 48.2217 142.835 48.4692 143.084C48.7167 143.333 48.9131 143.629 49.047 143.954C49.181 144.279 49.2499 144.628 49.2499 144.98V145.067L42.4021 145.067L42.4019 142.299Z" fill="#2F2E41"/>
<path d="M36.7075 142.997L38.8311 142.997L39.8415 134.759L36.7071 134.759L36.7075 142.997Z" fill="#FFB8B8"/>
<path d="M36.1657 142.299L40.3481 142.299H40.3483C40.6983 142.299 41.0449 142.369 41.3683 142.503C41.6917 142.638 41.9855 142.835 42.233 143.084C42.4805 143.333 42.6768 143.629 42.8108 143.954C42.9447 144.279 43.0137 144.628 43.0136 144.98V145.067L36.1658 145.067L36.1657 142.299Z" fill="#2F2E41"/>
<path d="M35.2822 109.705L35.7893 139.963C35.7909 140.059 35.8121 140.154 35.8517 140.241C35.8912 140.328 35.9482 140.406 36.0191 140.47C36.0901 140.534 36.1733 140.583 36.2638 140.613C36.3542 140.643 36.4499 140.654 36.5448 140.646L39.03 140.418C39.193 140.403 39.3455 140.331 39.4605 140.214C39.5754 140.097 39.6454 139.942 39.6581 139.778L41.113 120.904C41.1164 120.859 41.1366 120.818 41.1693 120.788C41.2021 120.758 41.2449 120.742 41.2891 120.743C41.3333 120.744 41.3756 120.762 41.4071 120.793C41.4386 120.824 41.4572 120.866 41.4588 120.911L42.186 140.217C42.1928 140.397 42.2687 140.568 42.3978 140.693C42.527 140.818 42.6992 140.888 42.8784 140.888H45.5437C45.7201 140.888 45.8899 140.82 46.0185 140.698C46.147 140.577 46.2245 140.41 46.2353 140.233L48.101 109.53L37.0144 106.743L35.2822 109.705Z" fill="#2F2E41"/>
<path d="M43.3237 81.2922C45.6735 81.2922 47.5783 79.3766 47.5783 77.0136C47.5783 74.6505 45.6735 72.7349 43.3237 72.7349C40.9739 72.7349 39.069 74.6505 39.069 77.0136C39.069 79.3766 40.9739 81.2922 43.3237 81.2922Z" fill="#FFB8B8"/>
<path d="M47.938 110.826C47.9338 110.826 47.9297 110.826 47.9256 110.826L37.9769 110.672C37.7857 110.669 37.6022 110.596 37.4614 110.466C37.3206 110.335 37.2323 110.158 37.2132 109.966L37.1006 108.834C37.0985 108.812 37.0885 108.792 37.0726 108.778C37.0566 108.763 37.0359 108.755 37.0144 108.755C36.993 108.755 36.9722 108.763 36.9563 108.778C36.9404 108.792 36.9304 108.812 36.9282 108.834L36.8119 110.004C36.7939 110.187 36.7122 110.358 36.5813 110.486C36.4504 110.615 36.2785 110.693 36.096 110.707L35.393 110.762C35.2691 110.771 35.1447 110.751 35.0301 110.702C34.9156 110.654 34.8143 110.578 34.7347 110.482C34.6551 110.386 34.5994 110.273 34.5723 110.151C34.5453 110.029 34.5476 109.902 34.5791 109.781L35.1845 107.46C36.4372 102.636 36.538 97.5823 35.4786 92.7116L35.1778 91.3354C34.951 90.3074 35.0548 89.2335 35.4742 88.2687C35.8936 87.3038 36.6069 86.4978 37.5112 85.967L39.4653 84.8151L40.3518 83.4778C40.5234 83.2196 40.7543 83.0069 41.0251 82.8576C41.2958 82.7083 41.5983 82.6269 41.907 82.6202C43.1437 82.593 45.2652 82.8207 45.6638 84.6394C46.6516 84.9788 47.507 85.6243 48.1072 86.4832C48.7073 87.3421 49.0213 88.3702 49.004 89.4198L48.717 110.053C48.7141 110.259 48.6308 110.456 48.485 110.6C48.3393 110.745 48.1428 110.826 47.938 110.826Z" fill="#3F3D56"/>
<path d="M42.9908 79.4795C42.9734 80.0843 42.5558 80.4342 42.0432 80.751C41.5305 81.0678 40.9313 81.2052 40.3442 81.3377C40.2653 81.3798 40.177 81.4008 40.0878 81.3986C39.9985 81.3964 39.9113 81.3711 39.8346 81.3251C39.7579 81.2792 39.6943 81.2141 39.6499 81.1362C39.6055 81.0584 39.5818 80.9703 39.5811 80.8805L39.0426 78.8208C38.8521 78.1629 38.7135 77.4908 38.6281 76.811C38.4984 75.5028 38.8067 74.0956 39.7146 73.1498C40.6225 72.204 42.1971 71.868 43.2851 72.5967C44.5763 70.9383 50.4781 74.6024 49.0223 75.7556C48.7633 75.9607 48.3674 75.7012 48.0386 75.676C47.7099 75.6508 47.3414 75.709 47.1326 75.9656C46.8598 76.3008 46.9786 76.8001 46.8662 77.2183C46.8197 77.3654 46.7447 77.5018 46.6455 77.6196C46.5463 77.7375 46.4249 77.8344 46.2883 77.9048C46.1517 77.9752 46.0025 78.0178 45.8495 78.0299C45.6964 78.0421 45.5425 78.0237 45.3966 77.9758C45.1248 77.8411 44.8691 77.6758 44.6344 77.483C44.3822 77.3141 44.0636 77.1893 43.7797 77.2958C43.4056 77.4362 43.2727 77.8969 43.2389 78.2971C43.1818 78.6962 43.099 79.0912 42.9908 79.4795Z" fill="#2F2E41"/>
<path opacity="0.2" d="M43.9844 90.9473L44.6774 99.4834L48.3152 108.368L42.9451 99.6576L43.9844 90.9473Z" fill="black"/>
<path d="M88.738 137.692L50.7715 115.04C50.1202 114.651 49.6491 114.017 49.4617 113.279C49.2743 112.54 49.3857 111.757 49.7716 111.101L67.4626 81.1135C67.7464 80.6337 68.2078 80.2866 68.7458 80.1485C69.2837 80.0104 69.8541 80.0925 70.3319 80.3768L109.582 103.794C110.067 104.084 110.418 104.557 110.558 105.107C110.698 105.657 110.615 106.241 110.327 106.73L92.6546 136.686C92.2672 137.341 91.6373 137.815 90.9031 138.003C90.1688 138.192 89.3902 138.08 88.738 137.692Z" fill="#F2F2F2"/>
<path d="M54.6136 113.99L87.8127 133.797C88.4449 134.174 89.2002 134.283 89.9125 134.101C90.6247 133.918 91.2355 133.458 91.6106 132.822L105.182 109.817C105.557 109.181 105.666 108.422 105.484 107.705C105.302 106.989 104.845 106.375 104.213 105.998L71.0136 86.1904C70.3814 85.8132 69.6261 85.7041 68.9138 85.8869C68.2016 86.0698 67.5907 86.5297 67.2156 87.1654L53.6441 110.171C53.269 110.806 53.1604 111.566 53.3423 112.282C53.5241 112.998 53.9814 113.613 54.6136 113.99Z" fill="white"/>
<path d="M110.395 106.536L67.5115 80.9513L68.254 79.6927C68.6429 79.0357 69.275 78.5606 70.0118 78.3717C70.7485 78.1828 71.5297 78.2955 72.1839 78.6851L110.133 101.326C110.786 101.717 111.259 102.352 111.448 103.093C111.636 103.834 111.524 104.619 111.137 105.278L110.395 106.536Z" fill="#CCCCCC"/>
<path d="M73.0956 82.507C73.5054 82.507 73.8376 82.173 73.8376 81.7608C73.8376 81.3487 73.5054 81.0146 73.0956 81.0146C72.6858 81.0146 72.3536 81.3487 72.3536 81.7608C72.3536 82.173 72.6858 82.507 73.0956 82.507Z" fill="white"/>
<path d="M75.5179 83.9524C75.9277 83.9524 76.2599 83.6183 76.2599 83.2062C76.2599 82.794 75.9277 82.46 75.5179 82.46C75.1081 82.46 74.7759 82.794 74.7759 83.2062C74.7759 83.6183 75.1081 83.9524 75.5179 83.9524Z" fill="white"/>
<path d="M77.9402 85.3977C78.35 85.3977 78.6822 85.0636 78.6822 84.6515C78.6822 84.2394 78.35 83.9053 77.9402 83.9053C77.5304 83.9053 77.1982 84.2394 77.1982 84.6515C77.1982 85.0636 77.5304 85.3977 77.9402 85.3977Z" fill="white"/>
<path d="M100.853 110.904L100.805 110.985L101.293 111.277L101.341 111.195L100.853 110.904Z" fill="#E6E6E6"/>
<path d="M99.8189 110.397L98.8329 109.809L98.8811 109.727L99.8672 110.315L99.8189 110.397ZM97.8468 109.221L96.8608 108.632L96.909 108.55L97.8951 109.139L97.8468 109.221ZM95.8747 108.044L94.8887 107.456L94.9369 107.374L95.923 107.962L95.8747 108.044ZM93.9026 106.867L92.9166 106.279L92.9648 106.197L93.9509 106.786L93.9026 106.867ZM91.9305 105.691L90.9445 105.102L90.9927 105.021L91.9788 105.609L91.9305 105.691ZM89.9584 104.514L88.9723 103.926L89.0206 103.844L90.0067 104.432L89.9584 104.514ZM87.9863 103.338L87.0002 102.749L87.0485 102.667L88.0346 103.256L87.9863 103.338ZM86.0142 102.161L85.0281 101.573L85.0764 101.491L86.0625 102.079L86.0142 102.161ZM84.0421 100.984L83.056 100.396L83.1043 100.314L84.0903 100.903L84.0421 100.984ZM82.07 99.8078L81.0839 99.2195L81.1322 99.1377L82.1182 99.726L82.07 99.8078ZM80.0979 98.6312L79.1118 98.0429L79.1601 97.9611L80.1461 98.5494L80.0979 98.6312ZM78.1258 97.4546L77.1397 96.8663L77.188 96.7845L78.174 97.3728L78.1258 97.4546ZM76.1537 96.278L75.1676 95.6897L75.2159 95.6079L76.2019 96.1962L76.1537 96.278ZM74.1815 95.1014L73.1955 94.5131L73.2438 94.4313L74.2298 95.0196L74.1815 95.1014ZM72.2094 93.9248L71.2234 93.3365L71.2717 93.2547L72.2577 93.843L72.2094 93.9248ZM70.2373 92.7482L69.2513 92.1599L69.2995 92.0781L70.2856 92.6664L70.2373 92.7482Z" fill="#E6E6E6"/>
<path d="M67.8254 91.1985L67.7771 91.2803L68.2652 91.5715L68.3135 91.4897L67.8254 91.1985Z" fill="#E6E6E6"/>
<path d="M80.339 108.95L80.2908 109.032L80.7789 109.323L80.8271 109.242L80.339 108.95Z" fill="#E6E6E6"/>
<path d="M79.3193 108.453L78.3479 107.873L78.3962 107.792L79.3676 108.371L79.3193 108.453ZM77.3765 107.294L76.4051 106.714L76.4534 106.632L77.4248 107.212L77.3765 107.294ZM75.4337 106.135L74.4623 105.555L74.5106 105.473L75.482 106.053L75.4337 106.135ZM73.4909 104.976L72.5195 104.396L72.5678 104.314L73.5392 104.894L73.4909 104.976ZM71.5481 103.816L70.5767 103.237L70.6249 103.155L71.5963 103.735L71.5481 103.816ZM69.6053 102.657L68.6339 102.078L68.6821 101.996L69.6535 102.576L69.6053 102.657ZM67.6624 101.498L66.691 100.919L66.7393 100.837L67.7107 101.416L67.6624 101.498ZM65.7196 100.339L64.7482 99.7595L64.7965 99.6777L65.7679 100.257L65.7196 100.339Z" fill="#E6E6E6"/>
<path d="M63.337 98.8069L63.2888 98.8887L63.7769 99.1799L63.8251 99.0981L63.337 98.8069Z" fill="#E6E6E6"/>
<path d="M68.6976 106.872L68.6494 106.954L69.1375 107.245L69.1857 107.163L68.6976 106.872Z" fill="#E6E6E6"/>
<path d="M67.65 106.357L66.6505 105.761L66.6988 105.679L67.6982 106.275L67.65 106.357ZM65.6511 105.165L64.6516 104.568L64.6999 104.487L65.6993 105.083L65.6511 105.165ZM63.6522 103.972L62.6528 103.376L62.701 103.294L63.7005 103.89L63.6522 103.972Z" fill="#E6E6E6"/>
<path d="M61.2135 102.406L61.1653 102.488L61.6533 102.779L61.7016 102.698L61.2135 102.406Z" fill="#E6E6E6"/>
<path d="M65.0738 113.014L65.0255 113.096L65.5136 113.387L65.5619 113.306L65.0738 113.014Z" fill="#E6E6E6"/>
<path d="M64.0261 112.5L63.0267 111.903L63.075 111.822L64.0744 112.418L64.0261 112.5ZM62.0272 111.307L61.0278 110.711L61.0761 110.629L62.0755 111.225L62.0272 111.307ZM60.0284 110.115L59.029 109.518L59.0772 109.437L60.0767 110.033L60.0284 110.115Z" fill="#E6E6E6"/>
<path d="M57.5897 108.55L57.5414 108.631L58.0295 108.923L58.0778 108.841L57.5897 108.55Z" fill="#E6E6E6"/>
<path d="M60.2562 110.336L88.3902 127.121C89.0719 127.527 89.8857 127.644 90.6532 127.447C91.4206 127.25 92.079 126.755 92.4839 126.07L100.704 112.136L100.648 112.104L81.9969 116.892L80.5196 111.074C80.4926 110.967 80.4412 110.867 80.3694 110.783C80.2977 110.698 80.2075 110.632 80.106 110.589C79.9507 110.526 79.7791 110.516 79.6178 110.561L69.8441 113.07L68.7637 108.816C68.7404 108.725 68.6994 108.638 68.6429 108.562C68.5865 108.487 68.5157 108.423 68.4347 108.374C68.3537 108.326 68.264 108.294 68.1707 108.281C68.0775 108.267 67.9825 108.272 67.8912 108.296C67.8252 108.313 61.4653 110.008 60.2562 110.336Z" fill="#6CAEE4"/>
<path d="M60.0881 110.346L60.0647 110.254L67.8859 108.246C68.0925 108.193 68.3115 108.225 68.4948 108.334C68.6781 108.444 68.8108 108.622 68.8637 108.83L69.9222 112.999L79.6417 110.504C79.8483 110.451 80.0673 110.483 80.2506 110.592C80.4339 110.702 80.5666 110.88 80.6196 111.087L82.0751 116.821L100.823 112.008L100.846 112.1L82.0068 116.937L80.5279 111.111C80.5049 111.02 80.4643 110.935 80.4085 110.86C80.3526 110.785 80.2827 110.722 80.2025 110.674C80.1224 110.626 80.0337 110.595 79.9415 110.581C79.8493 110.568 79.7554 110.573 79.6651 110.596L69.8539 113.115L68.7721 108.853C68.7253 108.67 68.6083 108.513 68.4465 108.416C68.2848 108.32 68.0916 108.292 67.9093 108.338L60.0881 110.346Z" fill="#3F3D56"/>
<path d="M69.1616 107.87C69.5273 107.87 69.8237 107.572 69.8237 107.204C69.8237 106.836 69.5273 106.538 69.1616 106.538C68.7959 106.538 68.4995 106.836 68.4995 107.204C68.4995 107.572 68.7959 107.87 69.1616 107.87Z" fill="#3F3D56"/>
<path d="M80.803 109.949C81.1687 109.949 81.4651 109.651 81.4651 109.283C81.4651 108.915 81.1687 108.617 80.803 108.617C80.4373 108.617 80.1409 108.915 80.1409 109.283C80.1409 109.651 80.4373 109.949 80.803 109.949Z" fill="#3F3D56"/>
<path d="M101.084 111.552C101.45 111.552 101.747 111.254 101.747 110.886C101.747 110.518 101.45 110.22 101.084 110.22C100.719 110.22 100.422 110.518 100.422 110.886C100.422 111.254 100.719 111.552 101.084 111.552Z" fill="#3F3D56"/>
<path d="M49.1658 111.676C48.9673 111.516 48.8061 111.314 48.6936 111.084C48.5811 110.854 48.5201 110.603 48.5149 110.346C48.5096 110.09 48.5603 109.836 48.6632 109.602C48.7662 109.368 48.919 109.159 49.1108 108.991L46.7933 103.218L49.9464 103.859L51.6638 109.242C51.9238 109.585 52.0497 110.012 52.0177 110.442C51.9856 110.872 51.7979 111.275 51.4899 111.575C51.182 111.875 50.7754 112.051 50.347 112.07C49.9187 112.088 49.4984 111.948 49.1658 111.676Z" fill="#FFB8B8"/>
<path d="M49.1274 109.175C48.9565 109.188 48.7864 109.143 48.6432 109.049C48.5 108.955 48.3916 108.815 48.3347 108.653L44.5829 97.9013L43.7812 87.1748C43.7591 86.8796 43.7955 86.583 43.8885 86.3021C43.9814 86.0212 44.1289 85.7617 44.3224 85.5387C44.516 85.3157 44.7517 85.1336 45.0158 85.003C45.28 84.8724 45.5673 84.7959 45.8611 84.778C46.1549 84.7601 46.4493 84.8011 46.7272 84.8987C47.0052 84.9962 47.261 85.1483 47.4799 85.3462C47.6988 85.5441 47.8764 85.7837 48.0024 86.0513C48.1284 86.3188 48.2002 86.6088 48.2138 86.9045L48.6627 96.7006L51.6071 107.54C51.6578 107.73 51.6358 107.932 51.5456 108.107C51.4553 108.282 51.3033 108.416 51.1194 108.484L49.3345 109.131C49.2678 109.155 49.1981 109.17 49.1274 109.175Z" fill="#3F3D56"/>
<path d="M118.689 99.6483C118.619 99.6174 118.554 99.5766 118.496 99.527L115.007 96.5713C114.923 96.5003 114.855 96.4125 114.806 96.3136C114.758 96.2146 114.73 96.1067 114.726 95.9965C114.721 95.8863 114.739 95.7764 114.778 95.6735C114.818 95.5707 114.879 95.4773 114.956 95.3992L118.122 92.2021C118.255 92.0667 118.432 91.9839 118.62 91.9688C118.809 91.9537 118.997 92.0073 119.149 92.1198L121.544 93.8683C121.693 93.9775 121.8 94.1357 121.846 94.3157C121.891 94.4956 121.873 94.686 121.794 94.854L119.723 99.2581C119.635 99.4455 119.478 99.591 119.285 99.6638C119.092 99.7367 118.878 99.7311 118.689 99.6483Z" fill="#6CAEE4"/>
<path d="M132.298 141.451L130.214 142.022L127.035 134.21L130.111 133.369L132.298 141.451Z" fill="#FFB8B8"/>
<path d="M128.521 141.842L132.582 140.731L133.271 143.275L126.722 145.067L126.71 145.025C126.531 144.361 126.62 143.653 126.96 143.056C127.3 142.459 127.861 142.022 128.521 141.842Z" fill="#2F2E41"/>
<path d="M114.484 143.05L112.324 143.05L111.297 134.673L114.484 134.674L114.484 143.05Z" fill="#FFB8B8"/>
<path d="M110.738 142.43H114.946V145.067H108.159V145.023C108.159 144.335 108.431 143.676 108.915 143.189C109.398 142.703 110.054 142.43 110.738 142.43Z" fill="#2F2E41"/>
<path d="M117.737 87.7431C120.126 87.7431 122.063 85.7952 122.063 83.3923C122.063 80.9894 120.126 79.0415 117.737 79.0415C115.347 79.0415 113.41 80.9894 113.41 83.3923C113.41 85.7952 115.347 87.7431 117.737 87.7431Z" fill="#FFB8B8"/>
<path d="M114.351 137.078H111.4C111.199 137.078 111.005 137 110.857 136.861C110.71 136.722 110.621 136.533 110.608 136.33C109.729 122.272 110.243 112.187 112.227 104.594C112.236 104.561 112.247 104.529 112.259 104.497L112.417 104.099C112.476 103.951 112.577 103.824 112.708 103.735C112.84 103.645 112.995 103.598 113.153 103.598H119.222C119.336 103.598 119.449 103.623 119.553 103.671C119.657 103.719 119.749 103.789 119.824 103.876L120.648 104.844C120.664 104.863 120.679 104.882 120.694 104.902C124.411 110.115 127.742 120.305 131.599 134.003C131.656 134.202 131.634 134.415 131.536 134.598C131.439 134.78 131.275 134.917 131.078 134.98L127.907 136.001C127.725 136.058 127.528 136.048 127.353 135.972C127.177 135.897 127.035 135.76 126.951 135.587L118.721 118.421C118.664 118.301 118.569 118.203 118.452 118.141C118.334 118.079 118.2 118.057 118.07 118.078C117.939 118.099 117.818 118.161 117.725 118.257C117.633 118.352 117.573 118.474 117.555 118.606L115.137 136.389C115.11 136.58 115.016 136.754 114.872 136.881C114.728 137.007 114.543 137.077 114.351 137.078Z" fill="#2F2E41"/>
<path d="M120.315 104.914C120.307 104.914 120.299 104.914 120.29 104.914L112.919 104.68C112.729 104.674 112.548 104.601 112.408 104.472C112.268 104.343 112.179 104.169 112.157 103.979C111.222 96.3724 113.785 94.3346 114.93 93.8116C115.026 93.7682 115.109 93.7007 115.171 93.6155C115.233 93.5304 115.272 93.4305 115.285 93.3257L115.384 92.5284C115.4 92.3876 115.455 92.2539 115.54 92.1412C117.336 89.8021 119.788 89.053 121.089 88.8148C121.195 88.7957 121.303 88.7984 121.408 88.8227C121.512 88.8471 121.611 88.8925 121.697 88.9563C121.784 89.02 121.857 89.1008 121.911 89.1937C121.966 89.2867 122.001 89.3897 122.014 89.4967L122.163 90.6416C122.178 90.7508 122.221 90.8541 122.288 90.9412C126.033 95.8644 121.861 103.133 120.987 104.541C120.916 104.655 120.817 104.749 120.699 104.814C120.582 104.88 120.45 104.914 120.315 104.914Z" fill="#6CAEE4"/>
<path d="M122.497 80.6865C122.176 79.7069 121.938 78.7014 121.788 77.681C121.741 77.0869 121.892 76.4477 122.322 76.0379C123.127 75.2708 124.495 75.6361 125.337 76.3621C126.554 77.4113 127.161 79.0236 127.39 80.6189C127.619 82.2142 127.518 83.8364 127.574 85.4474C127.629 87.0583 127.858 88.7147 128.675 90.1016C129.491 91.4886 131.007 92.5532 132.605 92.4351C133.251 92.4001 133.863 92.139 134.337 91.6971C134.57 91.4746 134.746 91.1993 134.851 90.8942C134.956 90.5891 134.986 90.2632 134.94 89.9437C135.757 91.415 135.343 93.409 134.124 94.5655C132.906 95.7221 131.031 96.0491 129.429 95.5553C127.827 95.0615 126.508 93.8233 125.721 92.3359C124.933 90.8485 124.644 89.1303 124.686 87.4457C124.718 86.1521 124.937 84.8479 124.72 83.5724C124.502 82.297 123.709 81.002 122.457 80.7016L122.497 80.6865Z" fill="#2F2E41"/>
<path d="M116.876 82.3636C116.663 83.0805 115.847 83.5226 115.112 83.4013C114.747 83.3248 114.409 83.1503 114.134 82.8962C113.859 82.6421 113.657 82.3179 113.551 81.9581C113.349 81.2289 113.432 80.4499 113.782 79.7799C113.975 79.3783 114.245 79.0189 114.576 78.7222C114.907 78.4256 115.293 78.1976 115.712 78.0512C116.133 77.9108 116.582 77.8742 117.02 77.9447C117.458 78.0151 117.873 78.1904 118.23 78.4558C118.268 78.2947 118.348 78.1468 118.462 78.0272C118.575 77.9075 118.719 77.8206 118.877 77.7752C119.196 77.6888 119.532 77.6938 119.848 77.7896C120.759 78.0506 121.548 78.6279 122.076 79.419C122.596 80.2076 122.94 81.1003 123.085 82.0357C123.333 83.4384 123.242 84.9711 122.458 86.1583C121.675 87.3455 120.072 88.0465 118.772 87.4805C118.691 87.0637 118.883 86.644 119.105 86.2828C119.328 85.9216 119.591 85.5698 119.676 85.1539C119.762 84.7379 119.598 84.2291 119.198 84.0931C118.857 83.9771 118.493 84.1651 118.133 84.1878C117.929 84.2007 117.725 84.1593 117.542 84.0679C117.358 83.9765 117.202 83.8382 117.089 83.667C116.975 83.4957 116.909 83.2974 116.896 83.0921C116.882 82.8868 116.923 82.6816 117.014 82.4971L116.876 82.3636Z" fill="#2F2E41"/>
<path d="M105.911 100.287C105.983 100.354 106.049 100.426 106.109 100.503L114.819 99.821L115.737 97.897L118.806 98.9113L117.146 103.475L106.175 102.734C105.958 103.042 105.653 103.277 105.301 103.407C104.948 103.537 104.565 103.555 104.201 103.461C103.838 103.366 103.512 103.162 103.266 102.876C103.021 102.591 102.868 102.237 102.827 101.861C102.787 101.486 102.861 101.107 103.04 100.775C103.219 100.443 103.494 100.174 103.829 100.003C104.163 99.832 104.542 99.7677 104.914 99.8184C105.286 99.8692 105.634 100.033 105.911 100.287Z" fill="#FFB8B8"/>
<path d="M118.759 101.951C118.685 101.93 118.615 101.898 118.551 101.857L114.694 99.4072C114.601 99.3484 114.521 99.2708 114.46 99.1794C114.399 99.088 114.357 98.9848 114.337 98.8763C114.317 98.7678 114.32 98.6564 114.346 98.5492C114.371 98.4419 114.418 98.341 114.484 98.253L117.187 94.6519C117.301 94.4995 117.465 94.3933 117.65 94.3524C117.834 94.3116 118.028 94.339 118.194 94.4295L120.803 95.8336C120.966 95.9213 121.093 96.0634 121.163 96.2354C121.233 96.4074 121.24 96.5985 121.185 96.7757L119.73 101.423C119.668 101.62 119.532 101.786 119.351 101.885C119.169 101.983 118.957 102.007 118.759 101.951Z" fill="#6CAEE4"/>
</g>
<defs>
<clipPath id="clip0_349_205">
<rect width="145" height="145" fill="white" transform="translate(0.333344 0.293945)"/>
</clipPath>
</defs>
</svg>
