<svg width="145" height="146" viewBox="0 0 145 146" fill="none" xmlns="http://www.w3.org/2000/svg">
<g clip-path="url(#clip0_349_84)">
<path d="M130.764 140.312L132.836 139.596C133.094 138.385 133.077 137.124 132.786 135.921C131.953 137.937 129.511 138.431 128.12 140.04C127.69 140.545 127.369 141.15 127.182 141.808C126.996 142.467 126.947 143.163 127.041 143.845L126.605 145.455C127.623 145.361 128.61 145.027 129.498 144.476C130.386 143.926 131.154 143.173 131.749 142.268C132.079 141.757 132.347 141.203 132.549 140.618C131.666 140.522 130.764 140.312 130.764 140.312Z" fill="#F2F2F2"/>
<path d="M61.696 75.2997V97.0597H2.432V75.2997H20.608V49.8277C19.84 50.8517 18.6453 51.8757 17.024 52.8997C15.4027 53.8383 13.568 54.7343 11.52 55.5877C9.55733 56.441 7.552 57.1237 5.504 57.6357C3.456 58.1477 1.62133 58.4037 0 58.4037V36.1317C1.19467 36.1317 2.816 35.705 4.864 34.8517C6.99733 33.9983 9.17333 32.9317 11.392 31.6517C13.6107 30.2863 15.5733 28.921 17.28 27.5557C18.9867 26.1903 20.096 24.9957 20.608 23.9717H45.44V75.2997H61.696Z" fill="#F2F2F2"/>
<path d="M80.4004 35.1063C81.0714 35.1063 81.6153 34.5177 81.6153 33.7917C81.6153 33.0656 81.0714 32.4771 80.4004 32.4771C79.7295 32.4771 79.1855 33.0656 79.1855 33.7917C79.1855 34.5177 79.7295 35.1063 80.4004 35.1063Z" fill="#F2F2F2"/>
<path d="M80.4004 40.3455C81.0714 40.3455 81.6153 39.757 81.6153 39.0309C81.6153 38.3049 81.0714 37.7163 80.4004 37.7163C79.7295 37.7163 79.1855 38.3049 79.1855 39.0309C79.1855 39.757 79.7295 40.3455 80.4004 40.3455Z" fill="#F2F2F2"/>
<path d="M85.4725 35.1063C86.1435 35.1063 86.6874 34.5177 86.6874 33.7917C86.6874 33.0656 86.1435 32.4771 85.4725 32.4771C84.8016 32.4771 84.2577 33.0656 84.2577 33.7917C84.2577 34.5177 84.8016 35.1063 85.4725 35.1063Z" fill="#F2F2F2"/>
<path d="M85.4725 40.3455C86.1435 40.3455 86.6874 39.757 86.6874 39.0309C86.6874 38.3049 86.1435 37.7163 85.4725 37.7163C84.8016 37.7163 84.2577 38.3049 84.2577 39.0309C84.2577 39.757 84.8016 40.3455 85.4725 40.3455Z" fill="#F2F2F2"/>
<path d="M90.5448 35.1063C91.2157 35.1063 91.7596 34.5177 91.7596 33.7917C91.7596 33.0656 91.2157 32.4771 90.5448 32.4771C89.8738 32.4771 89.3299 33.0656 89.3299 33.7917C89.3299 34.5177 89.8738 35.1063 90.5448 35.1063Z" fill="#F2F2F2"/>
<path d="M90.5448 40.3455C91.2157 40.3455 91.7596 39.757 91.7596 39.0309C91.7596 38.3049 91.2157 37.7163 90.5448 37.7163C89.8738 37.7163 89.3299 38.3049 89.3299 39.0309C89.3299 39.757 89.8738 40.3455 90.5448 40.3455Z" fill="#F2F2F2"/>
<path d="M90.5448 45.5853C91.2157 45.5853 91.7596 44.9967 91.7596 44.2707C91.7596 43.5446 91.2157 42.9561 90.5448 42.9561C89.8738 42.9561 89.3299 43.5446 89.3299 44.2707C89.3299 44.9967 89.8738 45.5853 90.5448 45.5853Z" fill="#F2F2F2"/>
<path d="M90.5448 50.8241C91.2157 50.8241 91.7596 50.2355 91.7596 49.5094C91.7596 48.7834 91.2157 48.1948 90.5448 48.1948C89.8738 48.1948 89.3299 48.7834 89.3299 49.5094C89.3299 50.2355 89.8738 50.8241 90.5448 50.8241Z" fill="#F2F2F2"/>
<path d="M95.6169 35.1063C96.2879 35.1063 96.8318 34.5177 96.8318 33.7917C96.8318 33.0656 96.2879 32.4771 95.6169 32.4771C94.946 32.4771 94.4021 33.0656 94.4021 33.7917C94.4021 34.5177 94.946 35.1063 95.6169 35.1063Z" fill="#F2F2F2"/>
<path d="M95.6169 40.3455C96.2879 40.3455 96.8318 39.757 96.8318 39.0309C96.8318 38.3049 96.2879 37.7163 95.6169 37.7163C94.946 37.7163 94.4021 38.3049 94.4021 39.0309C94.4021 39.757 94.946 40.3455 95.6169 40.3455Z" fill="#F2F2F2"/>
<path d="M95.6169 45.5853C96.2879 45.5853 96.8318 44.9967 96.8318 44.2707C96.8318 43.5446 96.2879 42.9561 95.6169 42.9561C94.946 42.9561 94.4021 43.5446 94.4021 44.2707C94.4021 44.9967 94.946 45.5853 95.6169 45.5853Z" fill="#F2F2F2"/>
<path d="M95.6169 50.8241C96.2879 50.8241 96.8318 50.2355 96.8318 49.5094C96.8318 48.7834 96.2879 48.1948 95.6169 48.1948C94.946 48.1948 94.4021 48.7834 94.4021 49.5094C94.4021 50.2355 94.946 50.8241 95.6169 50.8241Z" fill="#F2F2F2"/>
<path d="M100.689 35.1063C101.36 35.1063 101.904 34.5177 101.904 33.7917C101.904 33.0656 101.36 32.4771 100.689 32.4771C100.018 32.4771 99.4742 33.0656 99.4742 33.7917C99.4742 34.5177 100.018 35.1063 100.689 35.1063Z" fill="#F2F2F2"/>
<path d="M100.689 40.3455C101.36 40.3455 101.904 39.757 101.904 39.0309C101.904 38.3049 101.36 37.7163 100.689 37.7163C100.018 37.7163 99.4742 38.3049 99.4742 39.0309C99.4742 39.757 100.018 40.3455 100.689 40.3455Z" fill="#F2F2F2"/>
<path d="M105.761 35.1063C106.432 35.1063 106.976 34.5177 106.976 33.7917C106.976 33.0656 106.432 32.4771 105.761 32.4771C105.09 32.4771 104.546 33.0656 104.546 33.7917C104.546 34.5177 105.09 35.1063 105.761 35.1063Z" fill="#F2F2F2"/>
<path d="M105.761 40.3455C106.432 40.3455 106.976 39.757 106.976 39.0309C106.976 38.3049 106.432 37.7163 105.761 37.7163C105.09 37.7163 104.546 38.3049 104.546 39.0309C104.546 39.757 105.09 40.3455 105.761 40.3455Z" fill="#F2F2F2"/>
<path d="M129.849 122.85H120.83C120.83 123.13 111.535 123.358 111.535 123.358C111.389 123.477 111.256 123.613 111.138 123.764C110.785 124.22 110.592 124.796 110.593 125.391V125.797C110.594 126.471 110.841 127.117 111.281 127.594C111.722 128.07 112.319 128.338 112.942 128.338H129.849C130.471 128.338 131.068 128.07 131.509 127.593C131.949 127.117 132.197 126.471 132.197 125.797V125.391C132.196 124.717 131.948 124.071 131.508 123.595C131.068 123.119 130.471 122.851 129.849 122.85Z" fill="#142852"/>
<path d="M122.709 128.237H120.267V145.313H122.709V128.237Z" fill="#142852"/>
<path d="M129.66 145.22C129.66 145.506 125.959 145.331 121.394 145.331C116.829 145.331 113.129 145.506 113.129 145.22C113.129 144.935 116.829 142.67 121.394 142.67C125.959 142.67 129.66 144.935 129.66 145.22Z" fill="#142852"/>
<path d="M109.182 142.974L106.879 142.974L105.783 133.361L109.182 133.361L109.182 142.974Z" fill="#FFB8B8"/>
<path d="M105.233 142.262H109.675V145.288H102.437C102.437 144.485 102.731 143.716 103.256 143.148C103.78 142.581 104.492 142.262 105.233 142.262Z" fill="#142852"/>
<path d="M105.586 141.583L103.389 140.836L105.003 131.31L108.246 132.411L105.586 141.583Z" fill="#FFB8B8"/>
<path d="M102.016 139.624L106.254 141.064L105.417 143.951L98.5108 141.606C98.6208 141.227 98.7987 140.874 99.0344 140.57C99.2701 140.265 99.5589 140.013 99.8844 139.829C100.21 139.645 100.566 139.533 100.932 139.497C101.297 139.462 101.666 139.505 102.016 139.624Z" fill="#142852"/>
<path d="M123.681 121.183C123.628 120.699 123.532 120.221 123.395 119.756L122.965 119.17L121.845 117.65L121.797 117.652C121.714 117.656 121.37 117.676 120.838 117.721H120.833C120.504 117.75 120.102 117.786 119.646 117.833C119.525 117.847 119.399 117.859 119.27 117.874V119.996H121.618C121.732 119.996 121.842 120.041 121.928 120.123C122.014 120.204 122.069 120.317 122.084 120.439C122.086 120.461 122.088 120.482 122.088 120.504C122.088 120.639 122.038 120.768 121.95 120.863C121.862 120.959 121.743 121.012 121.618 121.012H107.98C107.806 121.137 107.639 121.273 107.48 121.419C106.999 121.821 106.653 122.382 106.494 123.017C105.697 126.806 104.245 133.872 103.817 135.947C103.785 136.104 103.793 136.266 103.837 136.419C103.881 136.571 103.962 136.709 104.07 136.818C104.15 136.898 104.244 136.961 104.346 137.003L106.041 137.69C106.11 137.718 106.183 137.736 106.257 137.745C106.266 137.745 106.274 137.747 106.283 137.747C106.301 137.748 106.318 137.749 106.336 137.749C106.507 137.748 106.674 137.691 106.815 137.586C106.956 137.481 107.065 137.332 107.127 137.159L108.464 133.362L110.525 127.507L111.34 125.192C112.285 125.432 120.213 127.33 122.867 124.271C123.129 123.969 123.336 123.617 123.476 123.232C123.699 122.578 123.77 121.874 123.681 121.183Z" fill="#142852"/>
<path d="M125.98 121.736C125.939 121.555 125.892 121.368 125.837 121.179L124.287 119.073L124.239 119.075C124.141 119.081 123.677 119.108 122.965 119.171C122.157 119.244 121.028 119.362 119.76 119.547C119.723 119.551 119.683 119.557 119.646 119.563C119.521 119.581 119.396 119.6 119.27 119.62V119.996H121.618C121.732 119.996 121.842 120.041 121.928 120.123C122.014 120.204 122.069 120.317 122.084 120.439C122.086 120.462 122.088 120.482 122.088 120.504C122.088 120.639 122.038 120.768 121.95 120.864C121.862 120.959 121.743 121.013 121.618 121.013H113.318C112.956 121.141 112.606 121.275 112.272 121.419C110.518 122.171 109.204 123.157 108.936 124.44C108.845 124.871 108.746 125.345 108.641 125.849C108.25 127.723 107.775 130.018 107.345 132.104V132.106C107.256 132.537 107.168 132.955 107.083 133.362C106.725 135.11 106.42 136.592 106.259 137.371C106.255 137.393 106.251 137.414 106.247 137.436V137.44C106.229 137.597 106.247 137.757 106.3 137.905L106.302 137.907V137.91C106.354 138.051 106.438 138.176 106.546 138.273C106.619 138.338 106.701 138.39 106.788 138.426L108.483 139.113C108.577 139.151 108.677 139.171 108.778 139.172C108.919 139.172 109.058 139.134 109.182 139.06C109.359 138.956 109.497 138.787 109.569 138.582L113.217 128.223L113.782 126.615C114.727 126.855 122.655 128.752 125.309 125.694C125.834 125.08 126.133 124.28 126.151 123.444C126.17 122.869 126.112 122.294 125.98 121.736Z" fill="#142852"/>
<path d="M125.772 103.802C125.742 103.764 125.71 103.725 125.676 103.689C125.175 103.119 124.558 102.687 123.873 102.425C123.188 102.164 122.456 102.082 121.736 102.186C121.109 102.276 120.487 102.408 119.875 102.583C119.084 102.803 118.36 103.242 117.774 103.857C117.318 104.336 116.959 104.912 116.719 105.549C116.48 106.186 116.365 106.87 116.382 107.557C116.39 107.836 116.392 108.12 116.388 108.409C116.388 108.543 116.386 108.679 116.384 108.815H118.237C118.317 108.815 118.397 108.825 118.475 108.846C118.701 108.904 118.903 109.043 119.047 109.241C119.191 109.438 119.269 109.682 119.27 109.933V119.39C119.396 119.429 119.522 119.467 119.646 119.508C119.685 119.522 119.723 119.535 119.76 119.547C119.803 119.561 119.847 119.575 119.888 119.589C120.269 119.718 120.642 119.853 121.006 119.996H121.618C121.732 119.996 121.842 120.041 121.928 120.123C122.014 120.204 122.069 120.317 122.084 120.439C122.212 120.494 122.336 120.549 122.458 120.604C122.892 120.799 123.303 120.994 123.681 121.183C124.19 121.435 124.643 121.675 125.022 121.885C125.141 121.95 125.273 121.985 125.407 121.986C125.583 121.986 125.754 121.924 125.896 121.811C125.925 121.788 125.953 121.763 125.98 121.736C126.081 121.634 126.157 121.507 126.201 121.366C126.246 121.225 126.259 121.074 126.237 120.927C126.044 119.33 125.987 117.717 126.068 116.109C126.121 114.757 126.234 113.371 126.38 112.031C126.459 111.306 126.547 110.594 126.64 109.909C126.728 109.255 126.822 108.626 126.914 108.033C127.035 107.28 126.994 106.507 126.796 105.774C126.598 105.041 126.248 104.366 125.772 103.802Z" fill="#6CAEE4"/>
<path d="M118.071 103.969C117.975 103.924 117.876 103.886 117.774 103.857C117.274 103.711 116.741 103.765 116.274 104.008C115.807 104.252 115.437 104.669 115.231 105.184L113.94 108.408L113.779 108.815H118.237C118.317 108.815 118.397 108.825 118.475 108.845L118.625 108.469L119.197 107.042C119.423 106.473 119.432 105.83 119.221 105.254C119.01 104.677 118.597 104.215 118.071 103.969Z" fill="#6CAEE4"/>
<path d="M122.079 100.599C124.628 100.599 126.693 98.3636 126.693 95.6061C126.693 92.8487 124.628 90.6133 122.079 90.6133C119.531 90.6133 117.465 92.8487 117.465 95.6061C117.465 98.3636 119.531 100.599 122.079 100.599Z" fill="#FFB8B8"/>
<path d="M126.64 109.909L124.006 109.986L123.814 111.988L123.771 112.452L119.646 114.456L119.27 114.639V118.203L119.646 118.087L120.833 117.721H120.838L126.068 116.109L126.129 116.091C126.551 115.959 126.923 115.683 127.189 115.304C127.455 114.924 127.601 114.463 127.605 113.987L127.618 111.623L127.63 109.88L126.64 109.909Z" fill="#FFB8B8"/>
<path d="M127.496 105.949C127.479 105.642 127.406 105.342 127.281 105.067C127.157 104.791 126.983 104.544 126.771 104.34C126.342 103.93 125.779 103.72 125.207 103.758C124.635 103.796 124.101 104.079 123.721 104.543C123.341 105.008 123.148 105.616 123.183 106.235L123.47 111.309C123.478 111.443 123.513 111.573 123.572 111.69C123.632 111.808 123.714 111.909 123.814 111.988C123.973 112.116 124.169 112.179 124.366 112.165L126.38 112.031L126.991 111.99C127.102 111.984 127.211 111.954 127.311 111.901C127.411 111.849 127.5 111.774 127.573 111.683C127.589 111.664 127.604 111.644 127.618 111.622C127.738 111.449 127.796 111.236 127.784 111.021L127.496 105.949Z" fill="#6CAEE4"/>
<path d="M119.888 119.589H119.646V119.563C119.522 119.581 119.396 119.599 119.27 119.62V119.996H121.006C120.641 119.854 120.269 119.718 119.888 119.589ZM119.888 119.589H119.646V119.563C119.522 119.581 119.396 119.599 119.27 119.62V119.996H121.006C120.641 119.854 120.269 119.718 119.888 119.589ZM121.618 119.589H119.646V109.933C119.645 109.603 119.545 109.281 119.361 109.017C119.177 108.753 118.919 108.561 118.625 108.47C118.499 108.429 118.368 108.408 118.237 108.409H101.517C101.144 108.409 100.786 108.57 100.521 108.856C100.257 109.142 100.109 109.529 100.108 109.933V119.894C100.108 120.299 100.257 120.686 100.521 120.972C100.785 121.258 101.144 121.419 101.517 121.419H121.618C121.826 121.418 122.027 121.335 122.182 121.185C122.337 121.034 122.435 120.828 122.458 120.604C122.462 120.571 122.463 120.537 122.463 120.504C122.463 120.262 122.374 120.029 122.215 119.858C122.057 119.686 121.842 119.59 121.618 119.589ZM122.088 120.504C122.088 120.639 122.038 120.768 121.95 120.863C121.862 120.959 121.743 121.012 121.618 121.012H101.517C101.243 121.012 100.981 120.894 100.787 120.685C100.593 120.475 100.484 120.191 100.484 119.894V109.933C100.484 109.637 100.593 109.353 100.787 109.143C100.981 108.933 101.243 108.815 101.517 108.815H118.237C118.317 108.815 118.397 108.825 118.475 108.846C118.701 108.904 118.903 109.043 119.047 109.241C119.191 109.438 119.269 109.682 119.27 109.933V119.996H121.618C121.732 119.996 121.842 120.041 121.928 120.123C122.014 120.204 122.069 120.317 122.084 120.439C122.086 120.461 122.088 120.482 122.088 120.504ZM119.888 119.589H119.646V119.563C119.522 119.581 119.396 119.599 119.27 119.62V119.996H121.006C120.641 119.854 120.269 119.718 119.888 119.589Z" fill="#142852"/>
<path d="M109.876 116.91C110.895 116.91 111.72 116.016 111.72 114.914C111.72 113.812 110.895 112.918 109.876 112.918C108.858 112.918 108.032 113.812 108.032 114.914C108.032 116.016 108.858 116.91 109.876 116.91Z" fill="#6CAEE4"/>
<path d="M121.094 93.6249C120.023 94.6609 118.586 95.7729 117.273 95.0139C116.412 94.5155 116.028 93.4226 116.229 92.388C116.591 90.5275 118.078 89.5222 119.517 88.7096C121.388 87.6532 123.452 86.7319 125.547 87.0066C127.642 87.2812 129.689 89.1544 129.59 91.4354C129.51 93.2698 128.126 94.981 128.564 96.7551C129.005 98.5406 131.008 99.232 132.714 99.3228C134.42 99.4137 136.298 99.2563 137.651 100.384C139.377 101.822 139.349 104.83 138.12 106.777C136.892 108.724 134.816 109.819 132.778 110.652C130.077 111.755 127.109 112.553 124.321 111.741C121.534 110.93 119.093 108.036 119.502 104.944C119.675 103.638 120.31 102.465 120.923 101.325C121.535 100.184 122.152 98.9944 122.28 97.6823C122.388 96.5888 122.067 95.3818 121.321 94.6775C121.187 94.5548 121.091 94.3891 121.049 94.204C121.006 94.0189 121.019 93.8241 121.085 93.6475L121.094 93.6249Z" fill="#142852"/>
<path d="M18.8818 140.312L16.81 139.596C16.5519 138.385 16.569 137.124 16.8599 135.921C17.6923 137.937 20.1342 138.431 21.5255 140.04C21.9559 140.545 22.2764 141.15 22.4632 141.808C22.6499 142.467 22.6983 143.163 22.6045 143.845L23.0404 145.455C22.0224 145.361 21.0353 145.027 20.1473 144.476C19.2592 143.926 18.4912 143.173 17.8962 142.268C17.567 141.757 17.2982 141.203 17.0962 140.618C17.9797 140.522 18.8818 140.312 18.8818 140.312Z" fill="#F2F2F2"/>
<path d="M53.2522 145.51C53.2523 145.532 53.2481 145.553 53.2399 145.574C53.2317 145.594 53.2196 145.612 53.2044 145.628C53.1892 145.643 53.1712 145.656 53.1513 145.664C53.1314 145.672 53.1101 145.677 53.0886 145.676H14.557C14.5136 145.676 14.472 145.659 14.4413 145.628C14.4106 145.596 14.3934 145.554 14.3934 145.51C14.3934 145.466 14.4106 145.423 14.4413 145.392C14.472 145.361 14.5136 145.343 14.557 145.343H53.0886C53.1101 145.343 53.1314 145.347 53.1513 145.356C53.1712 145.364 53.1892 145.376 53.2044 145.392C53.2196 145.407 53.2317 145.426 53.2399 145.446C53.2481 145.466 53.2523 145.488 53.2522 145.51Z" fill="#CCCCCC"/>
<path d="M96.3934 145.51C96.3933 145.532 96.3975 145.553 96.4057 145.574C96.4139 145.594 96.4259 145.612 96.4411 145.628C96.4564 145.643 96.4744 145.656 96.4943 145.664C96.5142 145.672 96.5355 145.677 96.557 145.676H135.089C135.132 145.676 135.174 145.659 135.204 145.628C135.235 145.596 135.252 145.554 135.252 145.51C135.252 145.466 135.235 145.423 135.204 145.392C135.174 145.361 135.132 145.343 135.089 145.343H96.557C96.5355 145.343 96.5142 145.347 96.4943 145.356C96.4744 145.364 96.4564 145.376 96.4411 145.392C96.4259 145.407 96.4139 145.426 96.4057 145.446C96.3975 145.466 96.3933 145.488 96.3934 145.51Z" fill="#CCCCCC"/>
<path d="M16.5951 125.391V125.797C16.5956 126.471 16.8432 127.117 17.2835 127.593C17.7237 128.07 18.3207 128.338 18.9433 128.338H35.8506C36.4733 128.338 37.0704 128.07 37.5108 127.594C37.9511 127.117 38.1986 126.471 38.1988 125.797V125.391C38.2 124.796 38.007 124.22 37.6539 123.764C37.5365 123.613 37.4035 123.477 37.2576 123.358C37.2576 123.358 27.9624 123.13 27.9624 122.85H18.9433C18.3208 122.851 17.724 123.119 17.2838 123.595C16.8436 124.071 16.596 124.717 16.5951 125.391Z" fill="#142852"/>
<path d="M26.0829 145.312H28.525L28.525 128.237H26.0829V145.312Z" fill="#142852"/>
<path d="M19.1321 145.22C19.1321 145.506 22.8328 145.331 27.3978 145.331C31.9629 145.331 35.6636 145.506 35.6636 145.22C35.6636 144.935 31.9629 142.67 27.3978 142.67C22.8328 142.67 19.1321 144.935 19.1321 145.22Z" fill="#142852"/>
<path d="M39.7205 143.129H42.0236L43.1192 133.516L39.7201 133.516L39.7205 143.129Z" fill="#A0616A"/>
<path d="M46.4654 145.443L39.2271 145.443L39.2269 142.417L43.6686 142.417C44.4104 142.417 45.1217 142.736 45.6462 143.303C46.1707 143.871 46.4654 144.64 46.4654 145.443Z" fill="#142852"/>
<path d="M43.3157 141.738L45.5131 140.992L43.899 131.465L40.6558 132.566L43.3157 141.738Z" fill="#A0616A"/>
<path d="M50.3914 141.761L43.4851 144.106L42.6478 141.219L46.8857 139.779C47.5934 139.539 48.3603 139.613 49.0178 139.984C49.6752 140.356 50.1693 140.995 50.3914 141.761Z" fill="#142852"/>
<path d="M41.7749 137.314L37.5617 125.346C36.6165 125.586 28.6898 127.484 26.035 124.426C25.1251 123.377 24.9477 121.858 25.5075 119.911L27.0569 117.804L27.1051 117.807C27.6909 117.84 41.4641 118.676 42.4082 123.171C43.2043 126.962 44.6581 134.028 45.0847 136.103C45.1279 136.318 45.0984 136.543 45.0013 136.736C44.9043 136.93 44.7463 137.079 44.5561 137.157L42.8617 137.845C42.7673 137.883 42.6673 137.903 42.5664 137.903C42.3949 137.903 42.2274 137.846 42.0861 137.741C41.9448 137.636 41.8363 137.487 41.7749 137.314Z" fill="#142852"/>
<path d="M39.3328 138.737L35.1196 126.769C34.1743 127.01 26.2477 128.908 23.5928 125.849C22.683 124.801 22.5055 123.282 23.0654 121.334L24.6148 119.228L24.6629 119.23C25.2487 119.264 39.0219 120.099 39.9661 124.595C40.7621 128.385 42.216 135.451 42.6426 137.527C42.6858 137.742 42.6562 137.966 42.5592 138.16C42.4622 138.353 42.3041 138.502 42.1139 138.58L40.4196 139.268C40.3252 139.306 40.2251 139.326 40.1243 139.326C39.9528 139.326 39.7853 139.27 39.644 139.165C39.5027 139.059 39.3942 138.91 39.3328 138.737Z" fill="#142852"/>
<path d="M35.543 115.518C34.9185 115.518 34.3049 115.342 33.762 115.008C33.2192 114.674 32.7658 114.193 32.4462 113.613L31.1082 111.16L34.2885 109.279L35.6389 111.283L44.8014 110.238C44.846 110.151 44.8962 110.067 44.9516 109.987C45.1274 109.737 45.3499 109.529 45.6048 109.378C45.8596 109.227 46.141 109.136 46.4306 109.11C46.7215 109.083 47.0144 109.124 47.2896 109.229C47.5648 109.335 47.8159 109.503 48.026 109.722C48.363 110.072 48.5808 110.535 48.6443 111.035C48.7077 111.536 48.613 112.045 48.3754 112.48C48.2268 112.751 48.027 112.985 47.789 113.166C47.551 113.348 47.2803 113.473 46.9945 113.533C46.7087 113.594 46.4143 113.588 46.1306 113.517C45.847 113.446 45.5804 113.311 45.3484 113.12C45.2946 113.076 45.243 113.028 45.1938 112.978L36.4181 115.399C36.1321 115.478 35.8381 115.518 35.543 115.518Z" fill="#A0616A"/>
<path d="M23.0058 121.966C22.879 121.867 22.78 121.732 22.7197 121.576C22.6594 121.42 22.6401 121.249 22.6641 121.082C23.1869 117.353 22.5854 112.012 21.9888 108.187C21.8667 107.411 21.9142 106.615 22.1276 105.862C22.341 105.11 22.7142 104.422 23.2175 103.854C23.7208 103.285 24.34 102.852 25.0257 102.589C25.7114 102.327 26.4444 102.241 27.1661 102.34C27.794 102.43 28.4159 102.563 29.0283 102.737C30.0455 103.015 30.9453 103.658 31.5797 104.562C32.2141 105.466 32.5454 106.577 32.5191 107.711C32.4299 111.402 33.1224 116.007 33.4243 117.815C33.4449 117.939 33.4416 118.067 33.4146 118.189C33.3877 118.312 33.3376 118.428 33.2676 118.529C33.199 118.628 33.1118 118.712 33.0116 118.773C32.9115 118.834 32.8006 118.872 32.6861 118.884C29.3407 119.254 25.7331 121.019 23.8804 122.039C23.7613 122.105 23.6293 122.14 23.4953 122.14C23.3192 122.14 23.1478 122.079 23.0058 121.966Z" fill="#CCCCCC"/>
<path d="M32.0363 112.348C31.9329 112.305 31.8386 112.239 31.7588 112.155C31.6791 112.071 31.6154 111.972 31.5716 111.861L29.7059 107.197C29.593 106.915 29.5324 106.612 29.5278 106.305C29.5231 105.998 29.5744 105.693 29.6788 105.407C29.7831 105.122 29.9385 104.861 30.136 104.641C30.3335 104.42 30.5692 104.244 30.8297 104.122C31.0902 104 31.3703 103.934 31.6541 103.929C31.938 103.925 32.2199 103.98 32.4837 104.094C32.7476 104.207 32.9883 104.375 33.192 104.589C33.3958 104.803 33.5585 105.058 33.6711 105.34L35.5368 110.004C35.6256 110.227 35.6291 110.478 35.5466 110.704C35.4642 110.929 35.3024 111.11 35.0969 111.207L32.6833 112.337C32.5815 112.385 32.4719 112.411 32.3608 112.413C32.2498 112.415 32.1395 112.393 32.0363 112.348Z" fill="#CCCCCC"/>
<path d="M26.8227 100.754C29.371 100.754 31.4367 98.5184 31.4367 95.7609C31.4367 93.0034 29.371 90.7681 26.8227 90.7681C24.2745 90.7681 22.2087 93.0034 22.2087 95.7609C22.2087 98.5184 24.2745 100.754 26.8227 100.754Z" fill="#A0616A"/>
<path d="M24.0344 100.196C23.9691 100.278 23.8892 100.345 23.7997 100.392C23.7101 100.44 23.6126 100.468 23.5129 100.474C23.4133 100.48 23.3135 100.465 23.2194 100.428C23.1254 100.392 23.039 100.336 22.9655 100.263C21.9366 99.3616 21.1206 98.2085 20.5849 96.8988C19.985 95.3516 19.8971 93.4635 20.5798 92.0132C21.1569 90.7873 22.1929 90.0069 23.2271 89.3691C23.6236 89.0987 24.0581 88.9 24.5135 88.7807C24.7436 88.7242 24.982 88.7205 25.2135 88.7697C25.4449 88.819 25.6643 88.9201 25.8575 89.0667C26.0624 89.2353 26.221 89.4612 26.3163 89.72C26.4115 89.9789 26.4398 90.2609 26.3981 90.5359C26.8712 89.8615 27.509 89.3435 28.2395 89.0404C28.6878 88.8316 29.1886 88.7953 29.6586 88.9375C30.3227 89.1774 30.8144 89.9032 31.0879 90.6829C31.3092 91.2799 31.3902 91.9269 31.3238 92.5661C31.2948 92.8713 31.2088 93.1669 31.0709 93.435C30.933 93.7031 30.7462 93.9381 30.5218 94.1256C29.98 94.5301 29.2821 94.489 28.652 94.31C28.022 94.131 27.4105 93.8274 26.7694 93.7428C26.1284 93.6581 25.4179 93.8416 25.036 94.4603C24.767 94.8961 24.7036 95.47 24.6487 96.0171L24.3633 98.8628C24.3431 99.27 24.2621 99.6709 24.1233 100.05C24.0998 100.103 24.0699 100.152 24.0344 100.196Z" fill="#142852"/>
<path d="M40.7233 130.948H33.2329C33.1115 130.948 32.9917 130.918 32.8824 130.861C32.7732 130.804 32.6775 130.72 32.6026 130.617C32.526 130.512 32.4726 130.39 32.4463 130.259C32.42 130.129 32.4216 129.994 32.451 129.864C33.1516 126.688 33.1516 123.379 32.4509 120.203C32.4216 120.073 32.42 119.938 32.4463 119.807C32.4726 119.677 32.526 119.555 32.6026 119.45C32.6775 119.346 32.7732 119.263 32.8824 119.206C32.9917 119.148 33.1115 119.119 33.2329 119.119H40.7233C40.9147 119.12 41.0997 119.193 41.2455 119.328C41.3913 119.462 41.4883 119.648 41.5193 119.852C42.0078 123.286 42.0078 126.781 41.5193 130.215C41.4883 130.419 41.3913 130.605 41.2455 130.739C41.0997 130.873 40.9147 130.947 40.7233 130.948Z" fill="#CCCCCC"/>
<path d="M34.9744 123.526V123.288C34.9745 123.126 35.034 122.971 35.1396 122.857C35.2453 122.742 35.3885 122.678 35.5379 122.678H39.4686C39.618 122.678 39.7613 122.742 39.8669 122.857C39.9726 122.971 40.032 123.126 40.0322 123.288V123.526C40.032 123.687 39.9726 123.843 39.8669 123.957C39.7613 124.071 39.618 124.135 39.4686 124.136H35.5379C35.3885 124.135 35.2453 124.071 35.1396 123.957C35.034 123.843 34.9745 123.687 34.9744 123.526Z" fill="white"/>
<path d="M34.9744 126.035V125.796C34.9745 125.635 35.034 125.48 35.1396 125.365C35.2453 125.251 35.3885 125.187 35.5379 125.187H39.4686C39.618 125.187 39.7613 125.251 39.8669 125.365C39.9726 125.48 40.032 125.635 40.0322 125.796V126.035C40.032 126.196 39.9726 126.351 39.8669 126.466C39.7613 126.58 39.618 126.644 39.4686 126.645H35.5379C35.3885 126.644 35.2453 126.58 35.1396 126.466C35.034 126.351 34.9745 126.196 34.9744 126.035Z" fill="white"/>
<path d="M37.3907 116.26C37.3128 116.153 37.2585 116.029 37.2318 115.896C37.2051 115.763 37.2067 115.626 37.2365 115.494C37.9487 112.266 37.9487 108.902 37.2364 105.674C37.2067 105.542 37.2051 105.405 37.2318 105.272C37.2585 105.139 37.3129 105.015 37.3907 104.909C37.4668 104.804 37.5641 104.719 37.6751 104.661C37.7861 104.602 37.908 104.572 38.0313 104.573H45.6447C45.8393 104.573 46.0274 104.648 46.1755 104.785C46.3237 104.921 46.4223 105.11 46.4538 105.318C46.9504 108.808 46.9504 112.36 46.4538 115.85C46.4223 116.058 46.3237 116.247 46.1755 116.384C46.0274 116.52 45.8393 116.595 45.6447 116.596H38.0313C37.908 116.596 37.7861 116.566 37.6751 116.508C37.5641 116.449 37.4668 116.365 37.3907 116.26Z" fill="#6CAEE4"/>
<path d="M44.1756 109.008H40.1649C40.0155 109.008 39.8722 108.944 39.7666 108.83C39.6609 108.715 39.6015 108.56 39.6013 108.399V108.14C39.6015 107.978 39.6609 107.823 39.7666 107.709C39.8722 107.594 40.0155 107.53 40.1649 107.53H44.1756C44.325 107.53 44.4682 107.594 44.5739 107.709C44.6795 107.823 44.739 107.978 44.7391 108.14V108.399C44.739 108.56 44.6795 108.715 44.5739 108.83C44.4682 108.944 44.325 109.008 44.1756 109.008Z" fill="white"/>
<path d="M44.1756 111.559H40.1649C40.0155 111.559 39.8722 111.495 39.7666 111.38C39.6609 111.266 39.6015 111.111 39.6013 110.949V110.69C39.6015 110.529 39.6609 110.374 39.7666 110.259C39.8722 110.145 40.0155 110.081 40.1649 110.081H44.1756C44.325 110.081 44.4682 110.145 44.5739 110.259C44.6795 110.374 44.739 110.529 44.7391 110.69V110.949C44.739 111.111 44.6795 111.266 44.5739 111.38C44.4682 111.495 44.325 111.559 44.1756 111.559Z" fill="white"/>
<path d="M33.8974 120.731C33.6231 120.628 33.372 120.462 33.1606 120.247C32.9491 120.031 32.7819 119.77 32.67 119.48C32.6442 119.412 32.6216 119.343 32.6025 119.272L22.7734 116.245C22.351 116.113 21.9792 115.837 21.7132 115.458C21.4472 115.08 21.3011 114.618 21.2966 114.142L21.2726 110.036L24.8957 110.141L25.1318 112.607L33.5367 116.691C33.6158 116.639 33.6981 116.594 33.7831 116.556C34.0927 116.415 34.4292 116.358 34.7637 116.39C35.0981 116.422 35.4204 116.541 35.7026 116.738C35.9849 116.934 36.2187 117.203 36.3838 117.519C36.5489 117.835 36.6403 118.19 36.6503 118.553C36.6602 118.916 36.5883 119.277 36.4408 119.603C36.2933 119.929 36.0746 120.212 35.8036 120.426C35.5326 120.641 35.2175 120.781 34.8854 120.834C34.5532 120.887 34.2142 120.852 33.8974 120.731Z" fill="#A0616A"/>
<path d="M21.329 111.839C21.2552 111.749 21.1986 111.644 21.1625 111.53C21.1264 111.417 21.1115 111.296 21.1186 111.176L21.4068 106.104C21.4238 105.797 21.4965 105.497 21.6207 105.221C21.745 104.944 21.9184 104.697 22.131 104.493C22.3436 104.29 22.5913 104.133 22.8598 104.033C23.1283 103.933 23.4125 103.891 23.6959 103.91C23.9794 103.929 24.2566 104.008 24.5118 104.143C24.767 104.278 24.995 104.466 25.183 104.697C25.3709 104.927 25.515 105.195 25.607 105.486C25.6991 105.777 25.7372 106.084 25.7193 106.391L25.4312 111.463C25.4171 111.705 25.3149 111.932 25.147 112.092C24.9791 112.253 24.7592 112.335 24.5355 112.32L21.9105 112.146C21.7996 112.139 21.6911 112.108 21.5913 112.055C21.4915 112.002 21.4023 111.929 21.329 111.839Z" fill="#CCCCCC"/>
<path d="M58.577 63.5927H43.1726C42.7244 63.5921 42.2946 63.3992 41.9777 63.0562C41.6607 62.7132 41.4824 62.2482 41.4819 61.7631V43.6709C41.4824 43.1858 41.6607 42.7208 41.9777 42.3778C42.2946 42.0348 42.7244 41.8419 43.1726 41.8413H58.577C59.0253 41.8419 59.455 42.0348 59.772 42.3778C60.0889 42.7208 60.2672 43.1858 60.2677 43.6709V61.7631C60.2672 62.2482 60.0889 62.7132 59.772 63.0562C59.455 63.3992 59.0253 63.5921 58.577 63.5927ZM43.1726 42.2479C42.824 42.2483 42.4897 42.3984 42.2432 42.6651C41.9967 42.9319 41.858 43.2936 41.8576 43.6709V61.7631C41.858 62.1404 41.9967 62.5021 42.2432 62.7689C42.4897 63.0356 42.824 63.1857 43.1726 63.1861H58.577C58.9257 63.1857 59.2599 63.0356 59.5064 62.7689C59.753 62.5021 59.8916 62.1404 59.892 61.7631V43.6709C59.8916 43.2936 59.753 42.9319 59.5064 42.6651C59.2599 42.3984 58.9257 42.2483 58.577 42.2479H43.1726Z" fill="#142852"/>
<path d="M43.1726 42.2479C42.824 42.2483 42.4897 42.3984 42.2432 42.6651C41.9967 42.9319 41.858 43.2936 41.8576 43.6709V61.7631C41.858 62.1404 41.9967 62.5021 42.2432 62.7689C42.4897 63.0356 42.824 63.1857 43.1726 63.1861H58.577C58.9257 63.1857 59.2599 63.0356 59.5064 62.7689C59.753 62.5021 59.8916 62.1404 59.892 61.7631V43.6709C59.8916 43.2936 59.753 42.9319 59.5064 42.6651C59.2599 42.3984 58.9257 42.2483 58.577 42.2479H43.1726Z" fill="white"/>
<path d="M86.7558 63.5927H71.3514C70.9031 63.5921 70.4734 63.3992 70.1564 63.0562C69.8394 62.7132 69.6612 62.2482 69.6606 61.7631V43.6709C69.6612 43.1858 69.8394 42.7208 70.1564 42.3778C70.4734 42.0348 70.9031 41.8419 71.3514 41.8413H86.7558C87.204 41.8419 87.6337 42.0348 87.9507 42.3778C88.2677 42.7208 88.446 43.1858 88.4465 43.6709V61.7631C88.446 62.2482 88.2677 62.7132 87.9507 63.0562C87.6337 63.3992 87.204 63.5921 86.7558 63.5927ZM71.3514 42.2479C71.0027 42.2483 70.6685 42.3984 70.422 42.6651C70.1754 42.9319 70.0368 43.2936 70.0364 43.6709V61.7631C70.0368 62.1404 70.1754 62.5021 70.422 62.7689C70.6685 63.0356 71.0027 63.1857 71.3514 63.1861H86.7558C87.1044 63.1857 87.4387 63.0356 87.6852 62.7689C87.9317 62.5021 88.0704 62.1404 88.0708 61.7631V43.6709C88.0704 43.2936 87.9317 42.9319 87.6852 42.6651C87.4387 42.3984 87.1044 42.2483 86.7558 42.2479H71.3514Z" fill="#142852"/>
<path d="M46.2751 49.3626H44.7722C44.5481 49.3623 44.3332 49.2658 44.1748 49.0943C44.0163 48.9228 43.9271 48.6903 43.9269 48.4478V46.8215C43.9271 46.579 44.0163 46.3465 44.1748 46.175C44.3332 46.0035 44.5481 45.907 44.7722 45.9067H46.2751C46.4992 45.907 46.7141 46.0035 46.8726 46.175C47.0311 46.3465 47.1202 46.579 47.1205 46.8215V48.4478C47.1202 48.6903 47.0311 48.9228 46.8726 49.0943C46.7141 49.2658 46.4992 49.3623 46.2751 49.3626Z" fill="#FFD335"/>
<path d="M46.2751 54.4446H44.7722C44.5481 54.4443 44.3332 54.3479 44.1748 54.1764C44.0163 54.0049 43.9271 53.7723 43.9269 53.5298V51.9035C43.9271 51.661 44.0163 51.4285 44.1748 51.257C44.3332 51.0855 44.5481 50.989 44.7722 50.9888H46.2751C46.4992 50.989 46.7141 51.0855 46.8726 51.257C47.0311 51.4285 47.1202 51.661 47.1205 51.9035V53.5298C47.1202 53.7723 47.0311 54.0049 46.8726 54.1764C46.7141 54.3479 46.4992 54.4443 46.2751 54.4446Z" fill="#CCCCCC"/>
<path d="M57.2592 48.3742H50.2428C50.0934 48.374 49.9501 48.3097 49.8444 48.1954C49.7388 48.081 49.6794 47.926 49.6792 47.7643V47.5054C49.6794 47.3437 49.7388 47.1887 49.8444 47.0743C49.9501 46.96 50.0934 46.8957 50.2428 46.8955H57.2592C57.4086 46.8957 57.5518 46.96 57.6575 47.0743C57.7631 47.1887 57.8226 47.3437 57.8227 47.5054V47.7643C57.8226 47.926 57.7632 48.081 57.6575 48.1954C57.5518 48.3097 57.4086 48.374 57.2592 48.3742Z" fill="#FFD335"/>
<path d="M74.5835 49.0437H73.0806C72.8565 49.0434 72.6416 48.947 72.4831 48.7755C72.3246 48.604 72.2355 48.3715 72.2352 48.1289V46.5027C72.2355 46.2601 72.3246 46.0276 72.4831 45.8561C72.6416 45.6846 72.8565 45.5882 73.0806 45.5879H74.5835C74.8076 45.5882 75.0225 45.6846 75.1809 45.8561C75.3394 46.0276 75.4286 46.2601 75.4288 46.5027V48.1289C75.4286 48.3715 75.3394 48.604 75.1809 48.7755C75.0225 48.947 74.8076 49.0434 74.5835 49.0437Z" fill="#CCCCCC"/>
<path d="M85.5675 48.0553H78.5511C78.4017 48.0552 78.2585 47.9908 78.1528 47.8765C78.0471 47.7622 77.9877 47.6072 77.9875 47.4455V47.1865C77.9877 47.0248 78.0471 46.8698 78.1528 46.7555C78.2585 46.6411 78.4017 46.5768 78.5511 46.5767H85.5675C85.7169 46.5768 85.8602 46.6411 85.9658 46.7555C86.0715 46.8698 86.1309 47.0248 86.1311 47.1865V47.4455C86.1309 47.6072 86.0715 47.7622 85.9658 47.8765C85.8602 47.9908 85.7169 48.0552 85.5675 48.0553Z" fill="#CCCCCC"/>
<path d="M85.5675 52.9337H72.5396C72.3902 52.9336 72.247 52.8693 72.1413 52.7549C72.0357 52.6406 71.9762 52.4856 71.9761 52.3239V52.0649C71.9762 51.9032 72.0357 51.7482 72.1413 51.6339C72.247 51.5196 72.3902 51.4553 72.5396 51.4551H85.5675C85.7169 51.4553 85.8602 51.5196 85.9658 51.6339C86.0715 51.7482 86.1309 51.9032 86.1311 52.0649V52.3239C86.1309 52.4856 86.0715 52.6406 85.9658 52.7549C85.8602 52.8693 85.7169 52.9336 85.5675 52.9337Z" fill="#6CAEE4"/>
<path d="M85.5675 56.3903H72.5396C72.3902 56.3901 72.247 56.3258 72.1413 56.2115C72.0357 56.0971 71.9762 55.9421 71.9761 55.7804V55.5215C71.9762 55.3598 72.0357 55.2048 72.1413 55.0904C72.247 54.9761 72.3902 54.9118 72.5396 54.9116H85.5675C85.7169 54.9118 85.8602 54.9761 85.9658 55.0904C86.0715 55.2048 86.1309 55.3598 86.1311 55.5215V55.7804C86.1309 55.9421 86.0715 56.0971 85.9658 56.2115C85.8602 56.3258 85.7169 56.3901 85.5675 56.3903Z" fill="#CCCCCC"/>
<path d="M85.5675 59.8459H72.5396C72.3902 59.8457 72.247 59.7814 72.1413 59.667C72.0357 59.5527 71.9762 59.3977 71.9761 59.236V58.977C71.9762 58.8154 72.0357 58.6603 72.1413 58.546C72.247 58.4317 72.3902 58.3674 72.5396 58.3672H85.5675C85.7169 58.3674 85.8602 58.4317 85.9658 58.546C86.0715 58.6603 86.1309 58.8154 86.1311 58.977V59.236C86.1309 59.3977 86.0715 59.5527 85.9658 59.667C85.8602 59.7814 85.7169 59.8457 85.5675 59.8459Z" fill="#CCCCCC"/>
<path d="M114.935 63.5927H99.5301C99.0819 63.5921 98.6521 63.3992 98.3352 63.0562C98.0182 62.7132 97.8399 62.2482 97.8394 61.7631V43.6709C97.8399 43.1858 98.0182 42.7208 98.3352 42.3778C98.6521 42.0348 99.0819 41.8419 99.5301 41.8413H114.935C115.383 41.8419 115.813 42.0348 116.129 42.3778C116.446 42.7208 116.625 43.1858 116.625 43.6709V61.7631C116.625 62.2482 116.446 62.7132 116.129 63.0562C115.813 63.3992 115.383 63.5921 114.935 63.5927ZM99.5301 42.2479C99.1815 42.2483 98.8472 42.3984 98.6007 42.6651C98.3542 42.9319 98.2155 43.2936 98.2151 43.6709V61.7631C98.2155 62.1404 98.3542 62.5021 98.6007 62.7689C98.8472 63.0356 99.1815 63.1857 99.5301 63.1861H114.935C115.283 63.1857 115.617 63.0356 115.864 62.7689C116.11 62.5021 116.249 62.1404 116.25 61.7631V43.6709C116.249 43.2936 116.11 42.9319 115.864 42.6651C115.617 42.3984 115.283 42.2483 114.935 42.2479H99.5301Z" fill="#142852"/>
<path d="M113.746 48.0553H106.73C106.58 48.0552 106.437 47.9908 106.332 47.8765C106.226 47.7622 106.166 47.6072 106.166 47.4455V47.1865C106.166 47.0248 106.226 46.8698 106.332 46.7555C106.437 46.6411 106.58 46.5768 106.73 46.5767H113.746C113.896 46.5768 114.039 46.6411 114.145 46.7555C114.25 46.8698 114.31 47.0248 114.31 47.1865V47.4455C114.31 47.6072 114.25 47.7622 114.145 47.8765C114.039 47.9908 113.896 48.0552 113.746 48.0553Z" fill="#CCCCCC"/>
<path d="M113.746 52.9337H100.718C100.569 52.9336 100.426 52.8693 100.32 52.7549C100.214 52.6406 100.155 52.4856 100.155 52.3239V52.0649C100.155 51.9032 100.214 51.7482 100.32 51.6339C100.426 51.5196 100.569 51.4553 100.718 51.4551H113.746C113.896 51.4553 114.039 51.5196 114.145 51.6339C114.25 51.7482 114.31 51.9032 114.31 52.0649V52.3239C114.31 52.4856 114.25 52.6406 114.145 52.7549C114.039 52.8693 113.896 52.9336 113.746 52.9337Z" fill="#CCCCCC"/>
<path d="M113.746 56.3903H100.718C100.569 56.3901 100.426 56.3258 100.32 56.2115C100.214 56.0971 100.155 55.9421 100.155 55.7804V55.5215C100.155 55.3598 100.214 55.2048 100.32 55.0904C100.426 54.9761 100.569 54.9118 100.718 54.9116H113.746C113.896 54.9118 114.039 54.9761 114.145 55.0904C114.25 55.2048 114.31 55.3598 114.31 55.5215V55.7804C114.31 55.9421 114.25 56.0971 114.145 56.2115C114.039 56.3258 113.896 56.3901 113.746 56.3903Z" fill="#CCCCCC"/>
<path d="M113.746 59.8459H100.718C100.569 59.8457 100.426 59.7814 100.32 59.667C100.214 59.5527 100.155 59.3977 100.155 59.236V58.977C100.155 58.8154 100.214 58.6603 100.32 58.546C100.426 58.4317 100.569 58.3674 100.718 58.3672H113.746C113.896 58.3674 114.039 58.4317 114.145 58.546C114.25 58.6603 114.31 58.8154 114.31 58.977V59.236C114.31 59.3977 114.25 59.5527 114.145 59.667C114.039 59.7814 113.896 59.8457 113.746 59.8459Z" fill="#CCCCCC"/>
<path d="M57.2592 53.4557H50.2428C50.0934 53.4555 49.9501 53.3912 49.8444 53.2769C49.7388 53.1626 49.6794 53.0076 49.6792 52.8459V52.5869C49.6794 52.4252 49.7388 52.2702 49.8444 52.1559C49.9501 52.0415 50.0934 51.9772 50.2428 51.9771H57.2592C57.4086 51.9772 57.5518 52.0415 57.6575 52.1559C57.7631 52.2702 57.8226 52.4252 57.8227 52.5869V52.8459C57.8226 53.0076 57.7632 53.1626 57.6575 53.2769C57.5518 53.3912 57.4086 53.4555 57.2592 53.4557Z" fill="#CCCCCC"/>
<path d="M46.2751 59.5271H44.7722C44.5481 59.5268 44.3332 59.4304 44.1748 59.2589C44.0163 59.0874 43.9271 58.8549 43.9269 58.6123V56.9861C43.9271 56.7435 44.0163 56.511 44.1748 56.3395C44.3332 56.168 44.5481 56.0716 44.7722 56.0713H46.2751C46.4992 56.0716 46.7141 56.168 46.8726 56.3395C47.0311 56.511 47.1202 56.7435 47.1205 56.9861V58.6123C47.1202 58.8549 47.0311 59.0874 46.8726 59.2589C46.7141 59.4304 46.4992 59.5268 46.2751 59.5271Z" fill="#CCCCCC"/>
<path d="M57.2592 58.5382H50.2428C50.0934 58.5381 49.9501 58.4738 49.8444 58.3594C49.7388 58.2451 49.6794 58.0901 49.6792 57.9284V57.6694C49.6794 57.5077 49.7388 57.3527 49.8444 57.2384C49.9501 57.1241 50.0934 57.0597 50.2428 57.0596H57.2592C57.4086 57.0597 57.5518 57.1241 57.6575 57.2384C57.7631 57.3527 57.8226 57.5077 57.8227 57.6694V57.9284C57.8226 58.0901 57.7632 58.2451 57.6575 58.3594C57.5518 58.4738 57.4086 58.5381 57.2592 58.5382Z" fill="#CCCCCC"/>
<path d="M103.662 47.1262C103.662 47.1215 103.663 47.117 103.663 47.1123C103.663 46.872 103.619 46.6341 103.534 46.4121C103.449 46.1902 103.325 45.9885 103.168 45.8186C103.011 45.6487 102.824 45.5139 102.619 45.422C102.414 45.33 102.194 45.2827 101.972 45.2827V47.1262H103.662Z" fill="#6CAEE4"/>
<path d="M101.784 47.3298V45.4863C101.451 45.4862 101.124 45.593 100.846 45.7934C100.568 45.9937 100.352 46.2786 100.223 46.6121C100.095 46.9456 100.06 47.3127 100.125 47.6673C100.189 48.0219 100.348 48.3479 100.584 48.6044C100.819 48.8609 101.119 49.0363 101.446 49.1085C101.773 49.1807 102.113 49.1465 102.422 49.0102C102.731 48.8739 102.996 48.6415 103.183 48.3425C103.371 48.0435 103.472 47.6911 103.475 47.3298H101.784Z" fill="#CCCCCC"/>
</g>
<defs>
<clipPath id="clip0_349_84">
<rect width="145" height="145" fill="white" transform="translate(0 0.587402)"/>
</clipPath>
</defs>
</svg>
