<svg width="145" height="145" viewBox="0 0 145 145" fill="none" xmlns="http://www.w3.org/2000/svg">
<g clip-path="url(#clip0_349_271)">
<path d="M32.896 110.514V94.6424H0V72.8824L40.576 21.1704H57.216V72.8824H68.48V94.6424H57.216V110.514H32.896ZM23.936 72.8824H35.712V57.5224L23.936 72.8824Z" fill="#F2F2F2"/>
<path d="M127.427 136.996L127.576 133.68C129.125 132.859 130.853 132.425 132.609 132.416C130.192 134.377 130.494 138.158 128.855 140.795C128.337 141.614 127.641 142.306 126.817 142.822C125.993 143.337 125.062 143.662 124.095 143.772L122.072 145.001C121.794 143.465 121.855 141.888 122.251 140.378C122.647 138.868 123.368 137.461 124.364 136.255C124.93 135.583 125.579 134.985 126.295 134.474C126.78 135.742 127.427 136.996 127.427 136.996Z" fill="#F2F2F2"/>
<path d="M57.9696 107.52C57.836 107.399 57.7307 107.251 57.6612 107.085C57.5916 106.919 57.5596 106.74 57.5673 106.561C57.575 106.381 57.6223 106.206 57.7058 106.047C57.7892 105.887 57.9069 105.748 58.0505 105.639L56.6644 101.496L58.8722 102.085L59.8499 105.928C60.019 106.18 60.0893 106.484 60.0473 106.783C60.0054 107.083 59.8543 107.357 59.6225 107.553C59.3907 107.749 59.0945 107.854 58.7898 107.848C58.4852 107.842 58.1934 107.726 57.9696 107.52Z" fill="#A0616A"/>
<path d="M61.9709 85.013C62.3372 85.2213 64.5046 84.705 64.9279 84.8519C64.6942 86.2665 65.9633 85.7356 64.5852 87.5933C63.2071 89.451 60.4314 95.0208 59.8009 97.1025C59.1703 99.1842 59.7944 102.118 59.7 103.104C59.6543 103.676 59.6572 104.25 59.7085 104.822C58.9639 104.812 58.23 104.966 57.4738 104.868C56.6673 102.604 56.1251 99.3807 55.7569 97.5995C55.3887 95.8183 55.3753 96.5716 55.5441 95.6809C55.713 94.7903 55.7539 95.4375 55.5765 94.5855C55.3991 93.7334 56.1165 92.6629 56.7794 92.0525C57.0652 91.2368 57.4346 90.4763 57.7175 89.6691C59.791 87.8744 59.9274 86.8376 61.9709 85.013Z" fill="#6CAEE4"/>
<path d="M122.214 142.703H120.382L119.511 135.692H122.215L122.214 142.703Z" fill="#FFB6B6"/>
<path d="M122.681 144.465L116.775 144.465V144.391C116.775 143.786 117.017 143.206 117.448 142.778C117.879 142.35 118.464 142.11 119.074 142.11L120.153 141.297L122.166 142.11L122.682 142.11L122.681 144.465Z" fill="#2F2E41"/>
<path d="M113.703 142.703H111.872L111 135.692H113.704L113.703 142.703Z" fill="#FFB6B6"/>
<path d="M114.171 144.465L108.264 144.465V144.391C108.264 143.786 108.506 143.206 108.937 142.778C109.368 142.35 109.953 142.11 110.563 142.11L111.642 141.297L113.655 142.11L114.171 142.11L114.171 144.465Z" fill="#2F2E41"/>
<path d="M112.91 104.374L124.826 104.669C127.089 105.889 127.124 108.528 126.382 111.662C126.382 111.662 126.632 113.525 126.132 114.022C125.631 114.519 125.381 114.519 125.631 115.388C125.881 116.257 124.559 117.677 124.72 117.837C124.88 117.996 125.256 118.865 125.256 118.865L124.004 125.944C124.004 125.944 123.128 138.238 122.878 138.486C122.627 138.735 122.377 138.486 122.627 139.107C122.878 139.728 123.128 139.48 122.878 139.728C122.656 139.966 122.447 140.214 122.252 140.473H119.226C119.226 140.473 118.998 139.232 118.998 139.107C118.998 138.983 118.747 138.238 118.747 138.114C118.747 137.99 118.969 137.77 118.969 137.77C119.045 137.518 119.097 137.259 119.123 136.996C119.123 136.748 119.874 127.186 119.874 127.186L118.372 114.767L114.742 126.937C114.742 126.937 114.742 137.617 114.492 137.866C114.242 138.114 114.242 137.99 114.367 138.486C114.492 138.983 114.993 138.859 114.617 139.232C114.242 139.604 114.116 138.983 114.242 139.604L114.367 140.225L110.612 140.278C110.612 140.278 110.111 139.232 110.362 138.859C110.612 138.486 110.597 138.588 110.292 137.978C109.986 137.369 109.861 137.245 109.986 137.12C110.111 136.996 110.111 136.336 110.111 136.336L110.737 124.454C110.737 124.454 110.862 111.911 110.862 111.538C110.872 111.347 110.836 111.155 110.758 110.98V110.474L111.238 108.682L112.91 104.374Z" fill="#2F2E41"/>
<path d="M119.386 63.2255H65.258C63.4381 63.2234 61.6933 62.503 60.4064 61.2223C59.1195 59.9416 58.3957 58.2051 58.3936 56.3939V33.2384C58.3956 31.4306 59.1168 29.697 60.3994 28.4169C61.6821 27.1367 63.4218 26.414 65.2384 26.4068C73.6447 24.0911 82.5705 22.9457 91.7719 23.0025C100.527 23.0565 109.824 24.2019 119.403 26.4068C121.22 26.4132 122.96 27.1356 124.243 28.4158C125.527 29.6961 126.248 31.43 126.25 33.2384V56.3939C126.248 58.2051 125.525 59.9416 124.238 61.2223C122.951 62.503 121.206 63.2234 119.386 63.2255ZM65.258 26.6924C63.5141 26.6943 61.8423 27.3846 60.6092 28.6118C59.3761 29.839 58.6825 31.5029 58.6806 33.2384V56.3939C58.6825 58.1294 59.3761 59.7933 60.6092 61.0205C61.8423 62.2477 63.5141 62.938 65.258 62.9399H119.386C121.13 62.938 122.802 62.2477 124.035 61.0205C125.268 59.7933 125.962 58.1294 125.964 56.3939V33.2384C125.962 31.5029 125.268 29.839 124.035 28.6118C122.802 27.3846 121.13 26.6943 119.386 26.6924L119.354 26.6887C99.5315 22.1238 81.8491 22.1232 65.2963 26.6872L65.258 26.6924Z" fill="#E6E6E6"/>
<path d="M64.3032 57.1823C64.2819 57.1823 64.2608 57.1781 64.2411 57.17C64.2213 57.1618 64.2034 57.1499 64.1884 57.1349C64.1733 57.1199 64.1613 57.1021 64.1531 57.0825C64.145 57.0629 64.1408 57.0418 64.1408 57.0206V32.6114C64.1408 32.5685 64.1579 32.5274 64.1884 32.4971C64.2188 32.4667 64.2601 32.4497 64.3032 32.4497C64.3463 32.4497 64.3876 32.4667 64.4181 32.4971C64.4485 32.5274 64.4656 32.5685 64.4656 32.6114V57.0206C64.4657 57.0418 64.4615 57.0629 64.4533 57.0825C64.4451 57.1021 64.4332 57.1199 64.4181 57.1349C64.403 57.1499 64.3851 57.1618 64.3654 57.17C64.3457 57.1781 64.3246 57.1823 64.3032 57.1823Z" fill="#E6E6E6"/>
<path d="M78.5071 57.1823C78.4858 57.1823 78.4646 57.1781 78.4449 57.17C78.4252 57.1618 78.4073 57.1499 78.3922 57.1349C78.3771 57.1199 78.3652 57.1021 78.357 57.0825C78.3489 57.0629 78.3447 57.0418 78.3447 57.0206V32.6114C78.3447 32.5685 78.3618 32.5274 78.3922 32.4971C78.4227 32.4667 78.464 32.4497 78.5071 32.4497C78.5502 32.4497 78.5915 32.4667 78.6219 32.4971C78.6524 32.5274 78.6695 32.5685 78.6695 32.6114V57.0206C78.6695 57.0418 78.6653 57.0629 78.6572 57.0825C78.649 57.1021 78.637 57.1199 78.622 57.1349C78.6069 57.1499 78.589 57.1618 78.5693 57.17C78.5495 57.1781 78.5284 57.1823 78.5071 57.1823Z" fill="#E6E6E6"/>
<path d="M92.711 57.1823C92.6896 57.1823 92.6685 57.1781 92.6488 57.17C92.6291 57.1618 92.6112 57.1499 92.5961 57.1349C92.581 57.1199 92.5691 57.1021 92.5609 57.0825C92.5527 57.0629 92.5485 57.0418 92.5485 57.0206V32.6114C92.5485 32.5685 92.5657 32.5274 92.5961 32.4971C92.6266 32.4667 92.6679 32.4497 92.711 32.4497C92.754 32.4497 92.7954 32.4667 92.8258 32.4971C92.8563 32.5274 92.8734 32.5685 92.8734 32.6114V57.0206C92.8734 57.0418 92.8692 57.0629 92.861 57.0825C92.8529 57.1021 92.8409 57.1199 92.8258 57.1349C92.8108 57.1499 92.7928 57.1618 92.7731 57.17C92.7534 57.1781 92.7323 57.1823 92.711 57.1823Z" fill="#E6E6E6"/>
<path d="M106.915 57.1823C106.894 57.1823 106.872 57.1781 106.853 57.17C106.833 57.1618 106.815 57.1499 106.8 57.1349C106.785 57.1199 106.773 57.1021 106.765 57.0825C106.757 57.0629 106.752 57.0418 106.752 57.0206V32.6114C106.752 32.5685 106.77 32.5274 106.8 32.4971C106.83 32.4667 106.872 32.4497 106.915 32.4497C106.958 32.4497 106.999 32.4667 107.03 32.4971C107.06 32.5274 107.077 32.5685 107.077 32.6114V57.0206C107.077 57.0418 107.073 57.0629 107.065 57.0825C107.057 57.1021 107.045 57.1199 107.03 57.1349C107.015 57.1499 106.997 57.1618 106.977 57.17C106.957 57.1781 106.936 57.1823 106.915 57.1823Z" fill="#E6E6E6"/>
<path d="M63.0382 36.2491C63.0382 36.2278 63.0424 36.2068 63.0505 36.1872C63.0587 36.1676 63.0706 36.1497 63.0857 36.1347C63.1008 36.1197 63.1187 36.1078 63.1384 36.0997C63.1581 36.0916 63.1793 36.0874 63.2006 36.0874H121.443C121.465 36.0874 121.486 36.0916 121.506 36.0997C121.525 36.1078 121.543 36.1197 121.558 36.1347C121.573 36.1498 121.585 36.1676 121.593 36.1872C121.602 36.2068 121.606 36.2278 121.606 36.2491C121.606 36.2703 121.602 36.2913 121.593 36.3109C121.585 36.3305 121.573 36.3483 121.558 36.3634C121.543 36.3784 121.525 36.3903 121.506 36.3984C121.486 36.4065 121.465 36.4107 121.443 36.4107H63.2006C63.1793 36.4107 63.1581 36.4065 63.1384 36.3984C63.1187 36.3903 63.1008 36.3784 63.0857 36.3634C63.0706 36.3484 63.0587 36.3305 63.0505 36.3109C63.0424 36.2913 63.0382 36.2703 63.0382 36.2491Z" fill="#E6E6E6"/>
<path d="M63.0382 54.2403C63.0382 54.219 63.0424 54.198 63.0505 54.1784C63.0587 54.1588 63.0706 54.141 63.0857 54.1259C63.1008 54.1109 63.1187 54.099 63.1384 54.0909C63.1581 54.0828 63.1793 54.0786 63.2006 54.0786H121.443C121.487 54.0786 121.528 54.0956 121.558 54.126C121.589 54.1563 121.606 54.1974 121.606 54.2403C121.606 54.2831 121.589 54.3243 121.558 54.3546C121.528 54.3849 121.487 54.4019 121.443 54.4019H63.2006C63.1793 54.4019 63.1581 54.3977 63.1384 54.3896C63.1187 54.3815 63.1008 54.3696 63.0857 54.3546C63.0706 54.3396 63.0587 54.3217 63.0505 54.3021C63.0424 54.2825 63.0382 54.2615 63.0382 54.2403Z" fill="#E6E6E6"/>
<path d="M63.0382 45.2447C63.0382 45.2234 63.0424 45.2024 63.0505 45.1828C63.0587 45.1632 63.0706 45.1454 63.0857 45.1303C63.1008 45.1153 63.1187 45.1034 63.1384 45.0953C63.1581 45.0872 63.1793 45.083 63.2006 45.083H121.443C121.487 45.083 121.528 45.1 121.558 45.1304C121.589 45.1607 121.606 45.2018 121.606 45.2447C121.606 45.2875 121.589 45.3286 121.558 45.359C121.528 45.3893 121.487 45.4063 121.443 45.4063H63.2006C63.1793 45.4063 63.1581 45.4021 63.1384 45.394C63.1187 45.3859 63.1008 45.374 63.0857 45.359C63.0706 45.344 63.0587 45.3261 63.0505 45.3065C63.0424 45.2869 63.0382 45.2659 63.0382 45.2447Z" fill="#E6E6E6"/>
<path d="M120.666 57.1823C120.687 57.1823 120.708 57.1781 120.728 57.17C120.748 57.1618 120.765 57.1499 120.781 57.1349C120.796 57.1199 120.808 57.1021 120.816 57.0825C120.824 57.0629 120.828 57.0418 120.828 57.0206V32.6114C120.828 32.5685 120.811 32.5274 120.78 32.4971C120.75 32.4667 120.709 32.4497 120.666 32.4497C120.623 32.4497 120.581 32.4667 120.551 32.4971C120.52 32.5274 120.503 32.5685 120.503 32.6114V57.0206C120.503 57.0418 120.507 57.0629 120.516 57.0825C120.524 57.1021 120.536 57.1199 120.551 57.1349C120.566 57.1499 120.584 57.1618 120.603 57.17C120.623 57.1781 120.644 57.1823 120.666 57.1823Z" fill="#E6E6E6"/>
<path d="M73.1629 44.1495H69.0718C68.8467 44.1493 68.6293 44.0684 68.4595 43.9215C68.2896 43.7746 68.1787 43.5717 68.1471 43.3499C67.8945 41.5 67.8945 39.6245 68.1471 37.7745C68.1783 37.5554 68.287 37.3546 68.4536 37.2081C68.6202 37.0616 68.8338 36.979 69.0561 36.9751C70.3433 36.4009 71.7295 36.4009 73.1769 36.975C73.3118 36.9768 73.4445 37.0079 73.566 37.0662C73.6874 37.1245 73.7945 37.2085 73.8799 37.3124C73.9689 37.4204 74.0325 37.5469 74.0663 37.6825C74.1 37.8181 74.103 37.9595 74.0749 38.0964C73.7463 39.724 73.7463 41.4004 74.0749 43.0281C74.103 43.1649 74.1 43.3063 74.0663 43.4419C74.0325 43.5776 73.9689 43.704 73.8799 43.8121C73.7931 43.9178 73.6836 44.0029 73.5596 44.0613C73.4356 44.1196 73.3001 44.1498 73.1629 44.1495Z" fill="#6CAEE4"/>
<path d="M72.7344 39.1007H69.291C69.234 39.1007 69.1792 39.0782 69.1389 39.038C69.0985 38.9978 69.0758 38.9433 69.0758 38.8865C69.0758 38.8297 69.0985 38.7753 69.1389 38.7351C69.1792 38.6949 69.234 38.6724 69.291 38.6724H72.7344C72.7915 38.6724 72.8462 38.6949 72.8866 38.7351C72.9269 38.7753 72.9496 38.8297 72.9496 38.8865C72.9496 38.9433 72.9269 38.9978 72.8866 39.038C72.8462 39.0782 72.7915 39.1007 72.7344 39.1007Z" fill="white"/>
<path d="M72.7344 40.8141H69.291C69.234 40.8141 69.1792 40.7915 69.1389 40.7514C69.0985 40.7112 69.0758 40.6567 69.0758 40.5999C69.0758 40.5431 69.0985 40.4886 69.1389 40.4485C69.1792 40.4083 69.234 40.3857 69.291 40.3857H72.7344C72.7915 40.3857 72.8462 40.4083 72.8866 40.4485C72.9269 40.4886 72.9496 40.5431 72.9496 40.5999C72.9496 40.6567 72.9269 40.7112 72.8866 40.7514C72.8462 40.7915 72.7915 40.8141 72.7344 40.8141Z" fill="white"/>
<path d="M72.7344 42.5275H69.291C69.234 42.5275 69.1792 42.5049 69.1389 42.4648C69.0985 42.4246 69.0758 42.3701 69.0758 42.3133C69.0758 42.2565 69.0985 42.202 69.1389 42.1619C69.1792 42.1217 69.234 42.0991 69.291 42.0991H72.7344C72.7915 42.0991 72.8462 42.1217 72.8866 42.1619C72.9269 42.202 72.9496 42.2565 72.9496 42.3133C72.9496 42.3701 72.9269 42.4246 72.8866 42.4648C72.8462 42.5049 72.7915 42.5275 72.7344 42.5275Z" fill="white"/>
<path d="M102.575 53.5733H98.4838C98.2588 53.5732 98.0414 53.4922 97.8715 53.3453C97.7017 53.1984 97.5908 52.9955 97.5592 52.7738C97.3065 50.9238 97.3065 49.0483 97.5592 47.1983C97.5904 46.9793 97.6991 46.7784 97.8656 46.6319C98.0322 46.4854 98.2458 46.4028 98.4681 46.3989C99.7553 45.8247 101.142 45.8248 102.589 46.3988C102.724 46.4006 102.857 46.4317 102.978 46.49C103.099 46.5483 103.207 46.6323 103.292 46.7362C103.381 46.8443 103.445 46.9707 103.478 47.1063C103.512 47.2419 103.515 47.3833 103.487 47.5202C103.158 49.1478 103.158 50.8243 103.487 52.4519C103.515 52.5888 103.512 52.7302 103.478 52.8658C103.445 53.0014 103.381 53.1278 103.292 53.2359C103.205 53.3416 103.096 53.4267 102.972 53.4851C102.848 53.5435 102.712 53.5736 102.575 53.5733Z" fill="#6CAEE4"/>
<path d="M102.146 48.5246H98.7031C98.646 48.5246 98.5913 48.502 98.5509 48.4618C98.5106 48.4217 98.4879 48.3672 98.4879 48.3104C98.4879 48.2536 98.5106 48.1991 98.5509 48.1589C98.5913 48.1188 98.646 48.0962 98.7031 48.0962H102.146C102.204 48.0962 102.258 48.1188 102.299 48.1589C102.339 48.1991 102.362 48.2536 102.362 48.3104C102.362 48.3672 102.339 48.4217 102.299 48.4618C102.258 48.502 102.204 48.5246 102.146 48.5246Z" fill="white"/>
<path d="M102.146 50.2379H98.7031C98.646 50.2379 98.5913 50.2154 98.5509 50.1752C98.5106 50.135 98.4879 50.0806 98.4879 50.0238C98.4879 49.9669 98.5106 49.9125 98.5509 49.8723C98.5913 49.8321 98.646 49.8096 98.7031 49.8096H102.146C102.204 49.8096 102.258 49.8321 102.299 49.8723C102.339 49.9125 102.362 49.9669 102.362 50.0238C102.362 50.0806 102.339 50.135 102.299 50.1752C102.258 50.2154 102.204 50.2379 102.146 50.2379Z" fill="white"/>
<path d="M115.057 44.1495H110.966C110.741 44.1493 110.524 44.0684 110.354 43.9215C110.184 43.7746 110.073 43.5717 110.041 43.3499C109.789 41.5 109.789 39.6245 110.041 37.7745C110.073 37.5554 110.181 37.3546 110.348 37.2081C110.514 37.0616 110.728 36.979 110.95 36.9751C112.238 36.4009 113.624 36.4009 115.071 36.975C115.206 36.9768 115.339 37.0079 115.46 37.0662C115.582 37.1245 115.689 37.2085 115.774 37.3124C115.863 37.4204 115.927 37.5469 115.961 37.6825C115.994 37.8181 115.997 37.9595 115.969 38.0964C115.641 39.724 115.641 41.4004 115.969 43.0281C115.997 43.1649 115.994 43.3063 115.961 43.4419C115.927 43.5776 115.863 43.704 115.774 43.8121C115.687 43.9178 115.578 44.0029 115.454 44.0613C115.33 44.1196 115.194 44.1498 115.057 44.1495Z" fill="#FFD335"/>
<path d="M114.629 40.8141H111.185C111.128 40.8141 111.073 40.7915 111.033 40.7514C110.993 40.7112 110.97 40.6567 110.97 40.5999C110.97 40.5431 110.993 40.4886 111.033 40.4485C111.073 40.4083 111.128 40.3857 111.185 40.3857H114.629C114.686 40.3857 114.74 40.4083 114.781 40.4485C114.821 40.4886 114.844 40.5431 114.844 40.5999C114.844 40.6567 114.821 40.7112 114.781 40.7514C114.74 40.7915 114.686 40.8141 114.629 40.8141Z" fill="white"/>
<path d="M114.629 42.5275H111.185C111.128 42.5275 111.073 42.5049 111.033 42.4648C110.993 42.4246 110.97 42.3701 110.97 42.3133C110.97 42.2565 110.993 42.202 111.033 42.1619C111.073 42.1217 111.128 42.0991 111.185 42.0991H114.629C114.686 42.0991 114.74 42.1217 114.781 42.1619C114.821 42.202 114.844 42.2565 114.844 42.3133C114.844 42.3701 114.821 42.4246 114.781 42.4648C114.74 42.5049 114.686 42.5275 114.629 42.5275Z" fill="white"/>
<path d="M113.194 33.4015C114.7 33.4015 115.92 32.1869 115.92 30.6885C115.92 29.1902 114.7 27.9756 113.194 27.9756C111.689 27.9756 110.468 29.1902 110.468 30.6885C110.468 32.1869 111.689 33.4015 113.194 33.4015Z" fill="#E6E6E6"/>
<path d="M114.594 29.5577C114.553 29.5188 114.498 29.4971 114.442 29.4971C114.385 29.4971 114.33 29.5188 114.289 29.5577C113.711 30.0168 113.191 30.545 112.742 31.1302C112.632 30.918 112.522 30.7057 112.412 30.4935C112.285 30.2485 111.913 30.4649 112.04 30.7097C112.201 31.0201 112.363 31.3306 112.524 31.641C112.543 31.6727 112.571 31.6989 112.603 31.717C112.636 31.7352 112.672 31.7448 112.71 31.7448C112.747 31.7448 112.784 31.7352 112.816 31.717C112.849 31.6989 112.876 31.6727 112.895 31.641C113.374 30.9704 113.946 30.371 114.594 29.8606C114.634 29.8203 114.656 29.7659 114.656 29.7092C114.656 29.6525 114.634 29.5981 114.594 29.5577Z" fill="white"/>
<path d="M99.8513 33.4015C101.357 33.4015 102.577 32.1869 102.577 30.6885C102.577 29.1902 101.357 27.9756 99.8513 27.9756C98.3458 27.9756 97.1253 29.1902 97.1253 30.6885C97.1253 32.1869 98.3458 33.4015 99.8513 33.4015Z" fill="#E6E6E6"/>
<path d="M101.251 29.5577C101.21 29.5188 101.155 29.4971 101.099 29.4971C101.042 29.4971 100.987 29.5188 100.946 29.5577C100.368 30.0168 99.8484 30.545 99.3994 31.1302C99.2892 30.918 99.179 30.7057 99.0688 30.4935C98.9416 30.2485 98.57 30.4649 98.6971 30.7097C98.8584 31.0201 99.0196 31.3306 99.1808 31.641C99.2002 31.6727 99.2275 31.6989 99.2601 31.717C99.2926 31.7352 99.3293 31.7448 99.3666 31.7448C99.4039 31.7448 99.4406 31.7352 99.4731 31.717C99.5057 31.6989 99.533 31.6727 99.5524 31.641C100.031 30.9704 100.603 30.371 101.251 29.8606C101.291 29.8203 101.313 29.7659 101.313 29.7092C101.313 29.6525 101.291 29.5981 101.251 29.5577Z" fill="white"/>
<path d="M71.7305 33.1158C73.2361 33.1158 74.4565 31.9012 74.4565 30.4029C74.4565 28.9046 73.2361 27.6899 71.7305 27.6899C70.225 27.6899 69.0045 28.9046 69.0045 30.4029C69.0045 31.9012 70.225 33.1158 71.7305 33.1158Z" fill="#E6E6E6"/>
<path d="M73.1299 29.2721C73.0889 29.2331 73.0344 29.2114 72.9777 29.2114C72.921 29.2114 72.8666 29.2331 72.8255 29.2721C72.2471 29.7312 71.7276 30.2593 71.2786 30.8446C71.1684 30.6323 71.0582 30.4201 70.948 30.2078C70.8208 29.9629 70.4492 30.1793 70.5763 30.4241C70.7376 30.7345 70.8988 31.0449 71.06 31.3554C71.0794 31.387 71.1067 31.4132 71.1393 31.4314C71.1718 31.4496 71.2085 31.4591 71.2458 31.4591C71.2831 31.4591 71.3198 31.4496 71.3523 31.4314C71.3849 31.4132 71.4122 31.387 71.4316 31.3554C71.91 30.6848 72.4819 30.0853 73.1299 29.575C73.1699 29.5346 73.1924 29.4802 73.1924 29.4235C73.1924 29.3668 73.1699 29.3124 73.1299 29.2721Z" fill="white"/>
<path d="M120.068 79.7893C122.113 79.7893 123.771 78.1446 123.771 76.1158C123.771 74.087 122.113 72.4424 120.068 72.4424C118.024 72.4424 116.366 74.087 116.366 76.1158C116.366 78.1446 118.024 79.7893 120.068 79.7893Z" fill="#FFB6B6"/>
<path d="M118.217 82.2171C117.42 82.6876 116.943 83.552 116.669 84.4317C116.162 86.0603 115.856 87.7441 115.76 89.4459L115.47 94.541L111.888 105.39C114.993 107.997 126.664 105.982 126.664 105.982C126.664 105.982 127.023 105.864 126.664 105.508C126.306 105.153 125.957 105.468 126.316 105.112C126.674 104.757 126.427 105.153 126.307 104.797C126.188 104.442 126.307 104.679 126.427 104.56C126.546 104.442 125.502 103.375 125.502 103.375L126.458 97.1479L127.652 84.587C126.219 82.8095 123.337 81.7617 123.337 81.7617L122.592 80.4316L118.868 80.7272L118.217 82.2171Z" fill="#3F3D56"/>
<path d="M117.709 73.96C117.853 73.9611 117.995 73.9796 118.134 74.0152C118.407 74.0805 118.685 74.1267 118.965 74.1535C119.822 74.2335 120.627 74.5962 121.252 75.1836C121.877 75.771 122.286 76.5493 122.413 77.3941C122.628 77.208 123.117 76.8657 123.519 77.1839C123.525 77.1889 123.528 77.1915 123.542 77.1849C123.809 77.0595 124.282 75.5156 124.296 74.1563C124.304 73.4348 124.189 72.5136 123.601 72.2218L123.57 72.2064L123.562 72.173C123.523 72.0107 123.084 71.7337 122.321 71.5181C120.935 71.1263 118.909 71.0696 117.745 72.1929C117.657 72.5717 117.329 72.6754 117.04 72.7673C116.719 72.869 116.443 72.9567 116.399 73.3468C116.363 73.902 116.365 74.459 116.407 75.0137C116.516 74.6743 116.729 74.3771 117.016 74.1642C117.221 74.0275 117.463 73.9563 117.709 73.96Z" fill="#2F2E41"/>
<path d="M110.818 94.2571L116.866 90.4141L113.82 86.3965L110.812 90.0675L101.441 90.6378C101.194 90.3961 100.882 90.2307 100.543 90.1619C100.203 90.093 99.8507 90.1237 99.5284 90.2502C99.2061 90.3767 98.9279 90.5935 98.7276 90.8741C98.5273 91.1548 98.4137 91.4872 98.4005 91.8309C98.3874 92.1745 98.4753 92.5145 98.6535 92.8095C98.8317 93.1044 99.0926 93.3415 99.4043 93.4919C99.716 93.6423 100.065 93.6994 100.409 93.6563C100.753 93.6132 101.077 93.4718 101.341 93.2493L110.818 94.2571Z" fill="#FFB6B6"/>
<path d="M122.479 85.0505C122.83 87.1582 116.202 91.183 116.202 91.183C116.202 90.6883 112.246 94.423 112.067 94.0127C111.559 92.8466 111.203 90.0847 110.493 89.6426C110.088 89.3898 112.936 87.0149 112.936 87.0149C112.936 87.0149 114.427 85.5246 116.383 83.6449C116.927 83.1033 117.599 82.7068 118.338 82.4924C119.077 82.2781 119.859 82.2527 120.611 82.4188C120.611 82.4188 122.128 82.9428 122.479 85.0505Z" fill="#3F3D56"/>
<path d="M115.74 109.25C115.743 111.505 115.362 113.745 114.614 115.875C114.58 115.974 114.544 116.072 114.509 116.171C112.978 120.297 110.13 123.813 106.399 126.185C106.144 126.347 105.886 126.503 105.624 126.653C102.643 128.368 99.2686 129.295 95.8234 129.346C95.7102 129.348 95.597 129.349 95.4838 129.349C95.3378 129.349 95.1933 129.348 95.0489 129.345C91.599 129.276 88.2245 128.331 85.2482 126.599C84.9861 126.446 84.7279 126.288 84.4737 126.124C80.3313 123.46 77.3109 119.387 75.979 114.671C74.6471 109.954 75.0952 104.917 77.2394 100.505C77.287 100.406 77.3362 100.309 77.3868 100.21C79.0755 96.8846 81.6616 94.09 84.8569 92.1374C88.0521 90.1848 91.7311 89.1509 95.4838 89.1509C99.2364 89.1509 102.915 90.1848 106.111 92.1374C109.306 94.09 111.892 96.8846 113.581 100.21C113.631 100.309 113.681 100.406 113.728 100.505C115.057 103.232 115.745 106.222 115.74 109.25Z" fill="#F2F2F2"/>
<path d="M109.473 115.875V116.171H111.287V115.875H109.473ZM105.844 115.875V116.171H107.659V115.875H105.844ZM102.216 115.875V116.171H104.03V115.875H102.216ZM98.5878 115.875V116.171H100.402V115.875H98.5878ZM94.9595 115.875V116.171H96.7737V115.875H94.9595ZM91.3312 115.875V116.171H93.1453V115.875H91.3312ZM87.7028 115.875V116.171H89.517V115.875H87.7028ZM84.076 115.875V116.171H85.8887V115.875H84.076ZM80.4477 115.875V116.171H82.2618V115.875H80.4477ZM76.8194 115.875V116.171H78.6335V115.875H76.8194ZM114.614 115.875H113.101V116.171H114.509L114.614 115.875Z" fill="#E6E6E6"/>
<path d="M113.101 113.806V114.102H114.915V113.806H113.101ZM109.473 113.806V114.102H111.287V113.806H109.473ZM105.844 113.806V114.102H107.659V113.806H105.844ZM102.216 113.806V114.102H104.03V113.806H102.216ZM98.5878 113.806V114.102H100.402V113.806H98.5878ZM94.9595 113.806V114.102H96.7737V113.806H94.9595ZM91.3312 113.806V114.102H93.1453V113.806H91.3312ZM87.7029 113.806V114.102H89.517V113.806H87.7029ZM84.076 113.806V114.102H85.8887V113.806H84.076ZM80.4477 113.806V114.102H82.2618V113.806H80.4477ZM76.8194 113.806V114.102H78.6335V113.806H76.8194Z" fill="#E6E6E6"/>
<path d="M113.101 109.521V109.816H114.915V109.521H113.101ZM109.473 109.521V109.816H111.287V109.521H109.473ZM105.844 109.521V109.816H107.659V109.521H105.844ZM102.216 109.521V109.816H104.03V109.521H102.216ZM98.5878 109.521V109.816H100.402V109.521H98.5878ZM94.9595 109.521V109.816H96.7737V109.521H94.9595ZM91.3312 109.521V109.816H93.1453V109.521H91.3312ZM87.7029 109.521V109.816H89.517V109.521H87.7029ZM84.076 109.521V109.816H85.8887V109.521H84.076ZM80.4477 109.521V109.816H82.2618V109.521H80.4477ZM76.8194 109.521V109.816H78.6335V109.521H76.8194Z" fill="#E6E6E6"/>
<path d="M113.101 106.565V106.861H114.915V106.565H113.101ZM109.473 106.565V106.861H111.287V106.565H109.473ZM105.844 106.565V106.861H107.659V106.565H105.844ZM102.216 106.565V106.861H104.03V106.565H102.216ZM98.5878 106.565V106.861H100.402V106.565H98.5878ZM94.9595 106.565V106.861H96.7737V106.565H94.9595ZM91.3312 106.565V106.861H93.1453V106.565H91.3312ZM87.7029 106.565V106.861H89.517V106.565H87.7029ZM84.076 106.565V106.861H85.8887V106.565H84.076ZM80.4477 106.565V106.861H82.2618V106.565H80.4477ZM76.8194 106.565V106.861H78.6335V106.565H76.8194Z" fill="#E6E6E6"/>
<path d="M113.581 100.21H113.101V100.506H113.728C113.681 100.407 113.631 100.309 113.581 100.21ZM109.473 100.21V100.506H111.287V100.21H109.473ZM105.844 100.21V100.506H107.659V100.21H105.844ZM102.216 100.21V100.506H104.03V100.21H102.216ZM98.5878 100.21V100.506H100.402V100.21H98.5878ZM94.9595 100.21V100.506H96.7737V100.21H94.9595ZM91.3312 100.21V100.506H93.1453V100.21H91.3312ZM87.7028 100.21V100.506H89.517V100.21H87.7028ZM84.076 100.21V100.506H85.8887V100.21H84.076ZM80.4477 100.21V100.506H82.2618V100.21H80.4477ZM77.3868 100.21C77.3362 100.309 77.287 100.407 77.2394 100.506H78.6335V100.21H77.3868Z" fill="#E6E6E6"/>
<path d="M106.399 101.206V126.185C106.144 126.348 105.886 126.503 105.624 126.654V101.206H106.399Z" fill="#3F3D56"/>
<path d="M95.8234 109.482V129.346C95.7102 129.347 95.597 129.349 95.4838 129.349C95.3378 129.349 95.1933 129.347 95.0489 129.345V109.482H95.8234Z" fill="#3F3D56"/>
<path d="M85.2482 101.206V126.599C84.9861 126.447 84.7279 126.289 84.4737 126.124V101.206H85.2482Z" fill="#3F3D56"/>
<path d="M47.2963 135.204L47.0009 131.127C45.0656 130.167 42.9233 129.69 40.7602 129.738C43.8034 132.072 43.5597 136.737 45.6673 139.93C46.3323 140.92 47.2135 141.75 48.2455 142.357C49.2776 142.964 50.4341 143.332 51.6292 143.435L54.1619 144.881C54.4516 142.981 54.3228 141.041 53.7842 139.196C53.2457 137.35 52.3102 135.642 51.0423 134.189C50.3229 133.381 49.5038 132.667 48.6044 132.062C48.0508 133.639 47.2963 135.204 47.2963 135.204Z" fill="#F2F2F2"/>
<path d="M105.91 103.191C107.473 103.191 108.74 101.934 108.74 100.383C108.74 98.8324 107.473 97.5752 105.91 97.5752C104.347 97.5752 103.08 98.8324 103.08 100.383C103.08 101.934 104.347 103.191 105.91 103.191Z" fill="#6CAEE4"/>
<path d="M107.363 99.2127C107.32 99.1724 107.264 99.1499 107.205 99.1499C107.146 99.1499 107.089 99.1724 107.047 99.2127C106.446 99.6879 105.907 100.234 105.441 100.84C105.326 100.621 105.212 100.401 105.098 100.181C104.966 99.9277 104.58 100.152 104.712 100.405C104.879 100.726 105.047 101.048 105.214 101.369C105.234 101.402 105.262 101.429 105.296 101.448C105.33 101.466 105.368 101.476 105.407 101.476C105.446 101.476 105.484 101.466 105.517 101.448C105.551 101.429 105.58 101.402 105.6 101.369C106.096 100.675 106.69 100.054 107.363 99.5262C107.404 99.4844 107.428 99.4281 107.428 99.3694C107.428 99.3107 107.404 99.2544 107.363 99.2127Z" fill="white"/>
<path d="M95.4838 111.467C97.0467 111.467 98.3138 110.21 98.3138 108.659C98.3138 107.108 97.0467 105.851 95.4838 105.851C93.9208 105.851 92.6538 107.108 92.6538 108.659C92.6538 110.21 93.9208 111.467 95.4838 111.467Z" fill="#6CAEE4"/>
<path d="M96.9365 107.489C96.894 107.449 96.8374 107.426 96.7785 107.426C96.7197 107.426 96.6631 107.449 96.6206 107.489C96.0201 107.964 95.4807 108.511 95.0147 109.117C94.9002 108.897 94.7858 108.677 94.6714 108.458C94.5393 108.204 94.1536 108.428 94.2856 108.681C94.4529 109.003 94.6203 109.324 94.7876 109.645C94.8078 109.678 94.8362 109.705 94.87 109.724C94.9037 109.743 94.9418 109.753 94.9806 109.753C95.0193 109.753 95.0574 109.743 95.0912 109.724C95.1249 109.705 95.1533 109.678 95.1735 109.645C95.6701 108.951 96.2638 108.331 96.9365 107.803C96.9781 107.761 97.0014 107.704 97.0014 107.646C97.0014 107.587 96.9781 107.531 96.9365 107.489Z" fill="white"/>
<path d="M84.9086 103.782C86.4716 103.782 87.7386 102.525 87.7386 100.974C87.7386 99.4232 86.4716 98.166 84.9086 98.166C83.3457 98.166 82.0786 99.4232 82.0786 100.974C82.0786 102.525 83.3457 103.782 84.9086 103.782Z" fill="#6CAEE4"/>
<path d="M86.3614 99.804C86.3188 99.7637 86.2622 99.7412 86.2034 99.7412C86.1445 99.7412 86.088 99.7637 86.0454 99.804C85.4449 100.279 84.9056 100.826 84.4395 101.432C84.3251 101.212 84.2106 100.992 84.0962 100.773C83.9642 100.519 83.5784 100.743 83.7104 100.996C83.8778 101.318 84.0451 101.639 84.2125 101.96C84.2327 101.993 84.261 102.02 84.2948 102.039C84.3286 102.058 84.3666 102.068 84.4054 102.068C84.4441 102.068 84.4822 102.058 84.516 102.039C84.5498 102.02 84.5781 101.993 84.5983 101.96C85.095 101.266 85.6886 100.646 86.3614 100.117C86.4029 100.076 86.4262 100.019 86.4262 99.9607C86.4262 99.9021 86.4029 99.8457 86.3614 99.804Z" fill="white"/>
<path d="M125.493 98.977L127.356 92.0953L122.378 91.1602L122.645 95.8838L116.104 102.567C115.758 102.553 115.415 102.639 115.117 102.815C114.819 102.991 114.579 103.249 114.427 103.558C114.275 103.867 114.216 104.213 114.258 104.554C114.301 104.896 114.442 105.217 114.666 105.48C114.889 105.743 115.185 105.936 115.517 106.035C115.849 106.134 116.203 106.135 116.535 106.037C116.868 105.94 117.165 105.749 117.39 105.488C117.615 105.226 117.758 104.905 117.802 104.564L125.493 98.977Z" fill="#FFB6B6"/>
<path d="M127.866 84.3796C129.555 85.7033 127.386 93.1075 127.386 93.1075C127.051 92.7418 126.66 98.1462 126.25 97.9621C125.083 97.4391 122.945 95.6357 122.121 95.7827C121.649 95.8667 122.143 92.2079 122.143 92.2079C122.143 92.2079 122.234 90.1101 122.405 87.4132C122.439 86.6499 122.667 85.9075 123.068 85.2551C123.469 84.6028 124.03 84.0617 124.698 83.6823C124.698 83.6823 126.176 83.0559 127.866 84.3796Z" fill="#3F3D56"/>
<path d="M69.4975 99.8299L71.5457 108.899L58.4209 108.089L61.9899 99.1821L69.4975 99.8299Z" fill="#A0616A"/>
<path d="M67.3121 141.687L68.7863 141.687L69.4877 136.045H67.3118L67.3121 141.687Z" fill="#A0616A"/>
<path d="M66.8127 140.966L69.1433 140.828V141.819L71.3591 143.337C71.4686 143.412 71.551 143.52 71.5944 143.645C71.6377 143.769 71.6398 143.905 71.6002 144.031C71.5606 144.157 71.4815 144.267 71.3744 144.345C71.2672 144.423 71.1377 144.465 71.0047 144.465H68.23L67.7518 143.485L67.565 144.465H66.5189L66.8127 140.966Z" fill="#2F2E41"/>
<path d="M53.3776 140.96L54.8185 141.27L56.7095 135.903L54.583 135.445L53.3776 140.96Z" fill="#A0616A"/>
<path d="M53.0439 140.149L55.351 140.505L55.1393 141.473L56.9803 143.423C57.0712 143.519 57.1288 143.642 57.1445 143.773C57.1602 143.904 57.1333 144.037 57.0677 144.151C57.0021 144.266 56.9013 144.357 56.7799 144.411C56.6584 144.465 56.5229 144.479 56.3929 144.451L53.6813 143.867L53.4233 142.809L53.0314 143.727L52.009 143.507L53.0439 140.149Z" fill="#2F2E41"/>
<path d="M71.8808 116.483C70.8461 122.125 70.5874 124.561 70.5874 124.561C70.5874 124.561 71.3635 125.459 70.8461 125.972C70.3288 126.486 70.8461 127.511 70.8461 127.511L69.6828 139.949L68.7464 139.799L66.4906 139.439L65.677 139.309L66.1943 127.64C66.1943 127.64 65.677 126.613 65.9357 126.356C66.1943 126.1 65.677 124.561 65.677 124.561L65.031 112.379L61.0238 125.716C61.0238 125.716 61.4125 126.229 61.0238 126.613C60.6365 126.997 59.8619 128.922 59.8619 128.922L57.4789 137.195L57.2766 137.898L56.0338 137.667L54.6812 137.414L54.4326 137.369L53.9904 137.285L53.7057 137.232L53.6089 137.215L53.1407 137.128L53.2823 136.504L53.356 136.176L55.3719 127.291L55.4182 127.086L55.4673 126.87C55.4673 126.87 55.2087 126.229 55.5959 125.843C55.7092 125.726 55.792 125.582 55.8371 125.426C55.8821 125.27 55.8882 125.105 55.8546 124.946C55.8419 124.932 55.8303 124.918 55.8199 124.903C55.7742 124.84 55.7426 124.769 55.7274 124.693C55.6928 124.533 55.7231 124.307 55.9847 124.048C56.0583 123.97 56.1202 123.882 56.1682 123.787C56.5613 123.049 56.7593 121.484 56.7593 121.484C56.7593 121.484 57.109 109.094 58.2535 107.202C58.3142 107.103 59.5292 105.203 59.5928 105.165C60.8847 104.396 70.95 105.458 70.95 105.458C70.95 105.458 71.5596 107.083 71.5871 107.252C71.7359 108.202 72.758 111.697 71.8808 116.483Z" fill="#2F2E41"/>
<path d="M68.8224 86.6389C68.8224 86.6389 69.0402 85.5172 66.9474 83.4407C65.8395 83.0742 63.9198 83.2878 63.2543 83.4407C60.1767 87.4715 60.7277 86.7603 59.9266 89.0125C59.7189 89.5965 59.615 90.1576 59.7073 90.6156C60.0767 92.4478 60.6762 101.853 60.5531 102.342C60.43 102.83 59.5683 103.441 60.43 103.441C61.2917 103.441 72.4045 103.248 72.1583 102.881C71.9121 102.515 68.8224 86.6389 68.8224 86.6389Z" fill="#6CAEE4"/>
<path d="M82.0205 101.542C81.8518 101.607 81.6707 101.634 81.4901 101.622C81.3096 101.61 81.1339 101.559 80.9754 101.472C80.817 101.386 80.6796 101.265 80.5731 101.12C80.4665 100.975 80.3933 100.809 80.3586 100.632L76.0032 100.018L77.5175 98.3193L81.4213 99.1627C81.7236 99.1245 82.0295 99.1977 82.281 99.3683C82.5326 99.5389 82.7123 99.7951 82.7862 100.088C82.86 100.382 82.8229 100.692 82.6818 100.96C82.5406 101.228 82.3054 101.435 82.0205 101.542Z" fill="#A0616A"/>
<path d="M63.5939 85.9166C63.945 85.684 64.3439 85.5748 64.665 85.2642C65.8373 86.1018 65.9236 84.738 66.986 86.7896C68.0485 88.8413 71.8381 93.788 73.4356 95.2753C75.0332 96.7627 77.9583 97.5149 78.8065 98.0383C79.302 98.3334 79.8216 98.5868 80.3599 98.7956C80.0198 99.4529 79.8312 100.173 79.4061 100.801C77.0038 100.509 73.8541 99.5554 72.0829 99.0892C70.3117 98.6229 70.9854 98.9704 70.2569 98.4237C69.5285 97.877 70.1307 98.1289 69.2828 97.907C68.435 97.6851 67.7885 96.5709 67.533 95.7102C66.9243 95.0929 66.4025 94.4261 65.8002 93.8152C65.1043 91.1738 64.3301 88.5447 63.5939 85.9166Z" fill="#6CAEE4"/>
<path d="M66.344 81.8771C68.3127 81.8771 69.9087 80.2936 69.9087 78.3402C69.9087 76.3868 68.3127 74.8032 66.344 74.8032C64.3753 74.8032 62.7793 76.3868 62.7793 78.3402C62.7793 80.2936 64.3753 81.8771 66.344 81.8771Z" fill="#A0616A"/>
<path d="M68.7257 84.8055C68.5567 84.5661 67.2934 82.1922 66.9179 81.2944C66.8793 81.4888 66.8549 81.6858 66.845 81.8837L66.8413 81.9574L66.7675 81.9669C66.6565 81.9809 64.0347 82.2967 62.6702 80.7616C61.8619 79.8523 61.6785 78.4884 62.1246 76.7069C62.0435 76.6911 61.9657 76.6614 61.8949 76.6191C61.7769 76.5381 61.6782 76.4325 61.6055 76.3097C61.5329 76.187 61.4881 76.0499 61.4744 75.9082L61.3988 75.9283C58.9714 74.7563 61.0627 71.3278 63.2798 73.0324C63.4743 72.9893 63.6771 73.0008 63.8653 73.0658C64.0468 73.139 64.205 73.2597 64.323 73.4149C64.441 73.5701 64.5145 73.7542 64.5357 73.9475C65.6813 73.3496 67.1974 73.4469 67.9815 73.8955C68.3098 74.0833 68.4984 74.3199 68.5318 74.5838C69.458 74.6351 70.4541 75.5303 70.4541 76.7985V76.8869H70.3651C69.9925 76.8947 69.6291 77.003 69.3137 77.2001C68.9984 77.3972 68.743 77.6757 68.575 78.0057C68.3472 78.414 68.2345 78.8756 68.2486 79.3421C68.2628 79.8085 68.4033 80.2626 68.6554 80.6565C68.9299 81.0744 69.1172 81.5425 69.2065 82.0333C69.2958 82.5241 69.2851 83.0277 69.1752 83.5143L68.8408 84.9685L68.7257 84.8055Z" fill="#2F2E41"/>
<path d="M79.069 144.494C79.069 144.517 79.0645 144.54 79.0556 144.562C79.0467 144.583 79.0337 144.602 79.0172 144.619C79.0007 144.635 78.9812 144.648 78.9596 144.657C78.9381 144.666 78.915 144.67 78.8917 144.67H37.1436C37.0966 144.67 37.0515 144.652 37.0183 144.619C36.9851 144.586 36.9664 144.541 36.9664 144.494C36.9664 144.448 36.9851 144.403 37.0183 144.37C37.0515 144.337 37.0966 144.318 37.1436 144.318H78.8917C78.915 144.318 78.9381 144.323 78.9596 144.332C78.9812 144.34 79.0007 144.353 79.0172 144.37C79.0337 144.386 79.0467 144.405 79.0556 144.427C79.0645 144.448 79.069 144.471 79.069 144.494Z" fill="#CCCCCC"/>
<path d="M135.966 144.494C135.966 144.517 135.962 144.54 135.953 144.562C135.944 144.583 135.931 144.602 135.915 144.619C135.898 144.635 135.879 144.648 135.857 144.657C135.836 144.666 135.812 144.67 135.789 144.67H94.041C93.994 144.67 93.949 144.652 93.9157 144.619C93.8825 144.586 93.8638 144.541 93.8638 144.494C93.8638 144.448 93.8825 144.403 93.9157 144.37C93.949 144.337 93.994 144.318 94.041 144.318H135.789C135.812 144.318 135.836 144.323 135.857 144.332C135.879 144.34 135.898 144.353 135.915 144.37C135.931 144.386 135.944 144.405 135.953 144.427C135.962 144.448 135.966 144.471 135.966 144.494Z" fill="#CCCCCC"/>
<path d="M84.8206 131.82C85.6918 131.82 86.3981 131.119 86.3981 130.255C86.3981 129.39 85.6918 128.689 84.8206 128.689C83.9495 128.689 83.2432 129.39 83.2432 130.255C83.2432 131.119 83.9495 131.82 84.8206 131.82Z" fill="#E6E6E6"/>
<path d="M95.3958 133.445C96.267 133.445 96.9733 132.744 96.9733 131.88C96.9733 131.016 96.267 130.315 95.3958 130.315C94.5246 130.315 93.8184 131.016 93.8184 131.88C93.8184 132.744 94.5246 133.445 95.3958 133.445Z" fill="#E6E6E6"/>
<path d="M105.971 131.524C106.842 131.524 107.548 130.824 107.548 129.959C107.548 129.095 106.842 128.394 105.971 128.394C105.1 128.394 104.394 129.095 104.394 129.959C104.394 130.824 105.1 131.524 105.971 131.524Z" fill="#E6E6E6"/>
</g>
<defs>
<clipPath id="clip0_349_271">
<rect width="145" height="145" fill="white" transform="translate(0 0.000488281)"/>
</clipPath>
</defs>
</svg>
