<svg width="27" height="28" viewBox="0 0 27 28" fill="none" xmlns="http://www.w3.org/2000/svg">
<path d="M16.3656 6.54221C17.4878 6.76075 18.5192 7.30855 19.3277 8.11552C20.1362 8.92249 20.6851 9.9519 20.904 11.072M16.3656 1.95508C18.6972 2.2136 20.8714 3.25573 22.5313 4.91035C24.1911 6.56496 25.238 8.73372 25.4999 11.0605M24.351 20.2119V23.6522C24.3523 23.9716 24.2867 24.2877 24.1585 24.5803C24.0303 24.873 23.8423 25.1357 23.6065 25.3516C23.3707 25.5675 23.0923 25.7319 22.7892 25.8342C22.4861 25.9365 22.1649 25.9745 21.8462 25.9458C18.3106 25.5623 14.9144 24.3565 11.9305 22.4251C9.15437 20.6644 6.8007 18.3153 5.03663 15.5445C3.09483 12.5527 1.88641 9.14654 1.50926 5.60185C1.48055 5.28472 1.51831 4.96511 1.62014 4.66335C1.72197 4.36159 1.88564 4.0843 2.10072 3.84913C2.3158 3.61396 2.57759 3.42607 2.86942 3.29741C3.16124 3.16876 3.47671 3.10216 3.79573 3.10186H7.24267C7.80027 3.09638 8.34085 3.29346 8.76364 3.65637C9.18643 4.01927 9.46258 4.52324 9.54062 5.07433C9.68611 6.17531 9.95592 7.25634 10.3449 8.29679C10.4995 8.70725 10.533 9.15333 10.4413 9.58219C10.3497 10.011 10.1368 10.4047 9.82787 10.7165L8.36867 12.1729C10.0043 15.0439 12.386 17.4211 15.2625 19.0536L16.7217 17.5972C17.0341 17.2889 17.4285 17.0764 17.8582 16.9849C18.2879 16.8935 18.7348 16.9268 19.1461 17.0811C20.1885 17.4694 21.2716 17.7387 22.3747 17.8839C22.9329 17.9625 23.4426 18.2431 23.807 18.6723C24.1713 19.1015 24.3649 19.6494 24.351 20.2119Z" stroke="#2651B5" stroke-width="3" stroke-linecap="round" stroke-linejoin="round"/>
</svg>
